<mxfile host="65bd71144e">
    <diagram name="Architecture" id="ouzxVkllaq6a5Bw1oq1c">
        <mxGraphModel dx="2098" dy="1750" grid="1" gridSize="10" guides="1" tooltips="1" connect="1" arrows="1" fold="1" page="1" pageScale="1" pageWidth="1100" pageHeight="850" math="0" shadow="0">
            <root>
                <mxCell id="S_Ya5THD_kvHtzZO9yah-0"/>
                <mxCell id="S_Ya5THD_kvHtzZO9yah-1" value="cloud-services" parent="S_Ya5THD_kvHtzZO9yah-0"/>
                <mxCell id="TIKsBMdkQv7yq_7XdX7K-15" style="edgeStyle=orthogonalEdgeStyle;rounded=0;sketch=0;orthogonalLoop=1;jettySize=auto;html=1;exitX=0;exitY=0.5;exitDx=0;exitDy=0;exitPerimeter=0;entryX=1;entryY=0.25;entryDx=0;entryDy=0;" parent="S_Ya5THD_kvHtzZO9yah-1" source="TIKsBMdkQv7yq_7XdX7K-5" target="S_Ya5THD_kvHtzZO9yah-17" edge="1">
                    <mxGeometry relative="1" as="geometry">
                        <mxPoint x="-130" y="282" as="targetPoint"/>
                        <Array as="points">
                            <mxPoint x="-70" y="285"/>
                        </Array>
                    </mxGeometry>
                </mxCell>
                <mxCell id="S_Ya5THD_kvHtzZO9yah-2" value="IBM Cloud" style="shape=mxgraph.ibm.box;prType=cloud;fontStyle=0;verticalAlign=top;align=left;spacingLeft=32;spacingTop=4;fillColor=none;rounded=0;whiteSpace=wrap;html=1;strokeColor=#4376BB;strokeWidth=3;dashed=0;container=1;spacing=-4;collapsible=0;expand=0;recursiveResize=0;fontFamily=Helvetica;fontSize=14;" parent="S_Ya5THD_kvHtzZO9yah-1" vertex="1">
                    <mxGeometry x="-670" y="-370" width="1487" height="894" as="geometry"/>
                </mxCell>
                <mxCell id="S_Ya5THD_kvHtzZO9yah-3" value="Region" style="shape=mxgraph.ibm.box;prType=region;fontStyle=0;verticalAlign=top;align=left;spacingLeft=32;spacingTop=4;fillColor=none;rounded=0;whiteSpace=wrap;html=1;strokeColor=#919191;strokeWidth=2;dashed=0;container=1;spacing=-4;collapsible=0;expand=0;recursiveResize=0;fontFamily=Helvetica;fontSize=14;" parent="S_Ya5THD_kvHtzZO9yah-2" vertex="1">
                    <mxGeometry x="20" y="30" width="1450" height="843" as="geometry"/>
                </mxCell>
                <mxCell id="S_Ya5THD_kvHtzZO9yah-4" value="Cloud Services" style="fontStyle=0;verticalAlign=top;align=center;spacingTop=-2;fillColor=none;rounded=0;whiteSpace=wrap;html=1;strokeColor=#4376BB;strokeWidth=1;dashed=0;container=1;collapsible=0;expand=0;recursiveResize=0;fontFamily=Helvetica;fontSize=14;" parent="S_Ya5THD_kvHtzZO9yah-3" vertex="1">
                    <mxGeometry x="681" y="30" width="199" height="790" as="geometry"/>
                </mxCell>
                <mxCell id="S_Ya5THD_kvHtzZO9yah-5" value="Database" style="aspect=fixed;perimeter=ellipsePerimeter;html=1;align=center;shadow=0;dashed=0;fontSize=14;spacingTop=3;image;image=data:image/svg+xml,PHN2ZyB2ZXJzaW9uPSIxLjEiIGlkPSJQYWRkaW5nIiB4bWxucz0iaHR0cDovL3d3dy53My5vcmcvMjAwMC9zdmciIHg9IjAiIHk9IjAiIHZpZXdCb3g9IjAgMCAzMiAzMiIgeG1sOnNwYWNlPSJwcmVzZXJ2ZSI+PHN0eWxlPjwvc3R5bGU+PGxpbmVhckdyYWRpZW50IGlkPSJTVkdJRF8xXyIgZ3JhZGllbnRVbml0cz0idXNlclNwYWNlT25Vc2UiIHgxPSI3LjQwMzcxODUiIHkxPSIyNi44MDAyMDMzIiB4Mj0iMjYuNDgyMzMyMiIgeTI9IjcuNzIxNTg5NiI+PHN0b3Agb2Zmc2V0PSIuMTAwODM0MyIgc3RvcC1jb2xvcj0iI2E1NmVmZiIvPjxzdG9wIG9mZnNldD0iLjkiIHN0b3AtY29sb3I9IiMwMDQzY2UiLz48L2xpbmVhckdyYWRpZW50PjxwYXRoIGQ9Ik0xNS4zMjEyODkxIDkuMzE0NDUzMWMtLjQxMzA4NTktLjQzNzAxMTctLjkxNjAxNTYtLjc3MzkyNTgtMS41MDU4NTk0LTEuMDExNzE4OC0uNTkwODIwMy0uMjM3NzkzLTEuMjUzOTA2Mi0uMzU2OTMzNi0xLjk4OTI1NzgtLjM1NjkzMzZINC42MDM1MTU2VjI0aDMuMDM2MTMyOHYtNi4xMTgxNjQxaDQuMTg2NTIzNGMuNzM1MzUxNiAwIDEuMzk4NDM3NS0uMTE4MTY0MSAxLjk4OTI1NzgtLjM1NjQ0NTMuNTg5ODQzOC0uMjM3MzA0NyAxLjA5Mjc3MzQtLjU3NDcwNyAxLjUwNTg1OTQtMS4wMTE3MTg4LjQxNDA2MjUtLjQzNzAxMTcuNzI4NTE1Ni0uOTU4NDk2MS45NDMzNTk0LTEuNTYzOTY0OC4yMTQ4NDM4LS42MDU5NTcuMzIyMjY1Ni0xLjI4NDE3OTcuMzIyMjY1Ni0yLjAzNTY0NDUgMC0uNzM1ODM5OC0uMTA3NDIxOS0xLjQxMDY0NDUtLjMyMjI2NTYtMi4wMjM5MjU4cy0uNTI5Mjk2OC0xLjEzODY3MTktLjk0MzM1OTMtMS41NzU2ODM2em0tMS44ODU3NDIyIDQuMTI4NDE4YzAgLjU4MzAwNzgtLjE2ODk0NTMgMS4wMzE3MzgzLS41MDU4NTk0IDEuMzQ1NzAzMS0uMzM2OTE0MS4zMTQ0NTMxLS43OTc4NTE2LjQ3MTE5MTQtMS4zNzk4ODI4LjQ3MTE5MTRINy42Mzk2NDg0di00LjY2ODk0NTNoMy45MTAxNTYyYy41ODIwMzEyIDAgMS4wNDI5Njg4LjE1MzgwODYgMS4zNzk4ODI4LjQ1OTk2MDkuMzM2OTE0MS4zMDcxMjg5LjUwNTg1OTQuNzUxNDY0OC41MDU4NTk0IDEuMzMzOTg0NHYxLjA1ODEwNTV6bTE0Ljg0NjY3OTcgOS4wNTEyNjk1Yy0uNjY2OTkyMi0uNjA1NDY4OC0xLjczNjMyODEtLjkwOTE3OTctMy4yMDgwMDc4LS45MDkxNzk3aC0zLjIxOTcyNjZjLTEuMDQyOTY4OCAwLTEuNTY0NDUzMS0uMjk4ODI4MS0xLjU2NDQ1MzEtLjg5NzQ2MDkgMC0uMjU5NzY1Ni4wODM5ODQ0LS40Nzg1MTU2LjI1MjkyOTctLjY1NDI5NjkuMTY4OTQ1My0uMTc2NzU3OC4zNjgxNjQxLS4zMTgzNTk0LjU5NzY1NjItLjQyNTc4MTIuNTIxNDg0NC4xMzc2OTUzIDEuMTM0NzY1Ni4yMDcwMzEyIDEuODQwODIwMy4yMDcwMzEyIDEuNjQwNjI1IDAgMi44Nzc5Mjk3LS4zNjkxNDA2IDMuNzEzODY3Mi0xLjEwNDQ5MjJTMjcuOTQ5MjE4OCAxNyAyNy45NDkyMTg4IDE1Ljc4OTA2MjVjMC0uNzM1ODM5OC0uMTUzMzIwMy0xLjM4NzY5NTMtLjQ1OTk2MDktMS45NTUwNzgxLS4zMDY2NDA2LS41NjY4OTQ1LS43NzQ0MTQxLTEuMDI2ODU1NS0xLjQwMzMyMDMtMS4zNzk4ODI4di0uMzIyMjY1NmgyLjU1MjczNDRWOS44Nzc5Mjk3aC0xLjg2MjMwNDdjLTEuMTM0NzY1NiAwLTEuNzAyMTQ4NC41ODMwMDc4LTEuNzAyMTQ4NCAxLjc0ODA0Njl2LjM5MTExMzNjLS4zMDY2NDA2LS4xMDc0MjE5LS42NDA2MjUtLjE4NDA4Mi0xLjAwMDk3NjYtLjIyOTk4MDVzLS43MjQ2MDk0LS4wNjkzMzU5LTEuMDkxNzk2OS0uMDY5MzM1OWMtMS42MjU5NzY2IDAtMi44NjAzNTE2LjM3MTU4Mi0zLjcwMzEyNSAxLjExNTIzNDQtLjg0Mzc1Ljc0MzE2NDEtMS4yNjU2MjUgMS43MjcwNTA4LTEuMjY1NjI1IDIuOTUyNjM2NyAwIC43OTY4NzUuMTgwNjY0MSAxLjQ5MzY1MjMuNTQxMDE1NiAyLjA5MTMwODZzLjkwODIwMzEgMS4wNjQ0NTMxIDEuNjQ0NTMxMiAxLjQwMjM0Mzh2LjA5MTc5NjljLS4yOTE5OTIyLjA2MTUyMzQtLjU2NzM4MjguMTUwMzkwNi0uODI4MTI1LjI2NTYyNS0uMjYwNzQyMi4xMTQyNTc4LS40OTQxNDA2LjI1NTg1OTQtLjcwMTE3MTkuNDI1NzgxMi0uMjA3MDMxMi4xNjc5Njg4LS4zNzIwNzAzLjM3MjA3MDMtLjQ5NTExNzIuNjA5Mzc1LS4xMjMwNDY5LjIzODI4MTItLjE4MzU5MzguNTExNzE4OC0uMTgzNTkzOC44MTgzNTk0IDAgLjQ5MjE4NzUuMTMzNzg5MS45MTc5Njg4LjQwMjM0MzggMS4yNzgzMjAzLjI2NzU3ODEuMzYwMzUxNi42NDc0NjA5LjYwMjUzOTEgMS4xMzg2NzE5LjcyNTU4NTl2LjI1MjkyOTdjLS42NzQ4MDQ3LjEwNzQyMTktMS4yMDAxOTUzLjM0ODYzMjgtMS41NzYxNzE5LjcyNDYwOTQtLjM3NS4zNzU5NzY2LS41NjM0NzY2LjkwMDM5MDYtLjU2MzQ3NjYgMS41NzUxOTUzIDAgLjQ0NDMzNTkuMDk5NjA5NC44NDI3NzM0LjI5OTgwNDcgMS4xOTYyODkxLjE5OTIxODguMzUyNTM5MS41MjQ0MTQxLjY0NzQ2MDkuOTc3NTM5MS44ODU3NDIyLjQ1MjE0ODQuMjM3MzA0NyAxLjAzMDI3MzQuNDIwODk4NCAxLjczNjMyODEuNTUxNzU3OC43MDUwNzgxLjEyOTg4MjggMS41NjM0NzY2LjE5NTMxMjUgMi41NzYxNzE5LjE5NTMxMjUgMS4xNDk0MTQxIDAgMi4xMjMwNDY5LS4wODM5ODQ0IDIuOTIwODk4NC0uMjUyOTI5Ny43OTY4NzUtLjE2ODk0NTMgMS40NDgyNDIyLS40MTQwNjI1IDEuOTU1MDc4MS0uNzM2MzI4MS41MDU4NTk0LS4zMjEyODkxLjg3MDExNzItLjcyNDYwOTQgMS4wOTE3OTY5LTEuMjA3MDMxMi4yMjI2NTYyLS40ODMzOTg0LjMzMzk4NDQtMS4wMzkwNjI1LjMzMzk4NDQtMS42Njc5Njg4IDAtMS4wNzIyNjU4LS4zMzM5ODQzLTEuOTEyMTA5NS0xLjAwMDk3NjUtMi41MTc1Nzgzem0tNy40NjI4OTA3LTYuOTIyMzYzM2MwLTEuMjE5NzI2Ni43MjA3MDMxLTEuODI5NTg5OCAyLjE2MjEwOTQtMS44Mjk1ODk4IDEuNDQwNDI5NyAwIDIuMTYxMTMyOC42MDk4NjMzIDIuMTYxMTMyOCAxLjgyOTU4OTh2LjM4ODY3MTljMCAxLjIxOTIzODMtLjcyMDcwMzEgMS44Mjk1ODk4LTIuMTYxMTMyOCAxLjgyOTU4OTgtMS40NDE0MDYyIDAtMi4xNjIxMDk0LS42MTAzNTE2LTIuMTYyMTA5NC0xLjgyOTU4OTh2LS4zODg2NzE5em01LjA0Nzg1MTYgMTAuOTEyNTk3N2MtLjQzNjUyMzQuMjQ1MTE3Mi0xLjEzNzY5NTMuMzY3MTg3NS0yLjEwNDQ5MjIuMzY3MTg3NWgtMS40NzE2Nzk3Yy0uOTE5OTIxOSAwLTEuNTcyMjY1Ni0uMTI5ODgyOC0xLjk1NTA3ODEtLjM5MDYyNS0uMzgzNzg5MS0uMjYwNzQyMi0uNTc1MTk1My0uNjIxMDkzOC0uNTc1MTk1My0xLjA4MTA1NDcgMC0uNTIxNDg0NC4yMDcwMzEyLS45MzU1NDY5LjYyMTA5MzgtMS4yNDEyMTA5aDQuMDkzNzVjLjc1MTk1MzEgMCAxLjI4MDI3MzQuMTA2NDQ1MyAxLjU4Nzg5MDYuMzIxMjg5MS4zMDU2NjQxLjIxMzg2NzIuNDU5OTYwOS41MTM2NzE5LjQ1OTk2MDkuODk3NDYwOSAwIC41MDU4NTkzLS4yMTg3NS44ODA4NTkzLS42NTYyNSAxLjEyNjk1MzF6IiBmaWxsPSJ1cmwoI1NWR0lEXzFfKSIvPjwvc3ZnPgo=;strokeColor=#4277BB;strokeWidth=2;labelBackgroundColor=none;fontFamily=Helvetica;" parent="S_Ya5THD_kvHtzZO9yah-4" vertex="1">
                    <mxGeometry x="69.5" y="340" width="60" height="60" as="geometry"/>
                </mxCell>
                <UserObject link="https://cloud.ibm.com/catalog/services/sysdig-monitor" label="Monitoring" id="S_Ya5THD_kvHtzZO9yah-6">
                    <mxCell style="aspect=fixed;perimeter=ellipsePerimeter;html=1;align=center;shadow=0;dashed=0;fontSize=14;spacingTop=3;image;image=data:image/svg+xml,PHN2ZyBpZD0iQnVpbGRfaWNvbl9oZXJlIiBkYXRhLW5hbWU9IkJ1aWxkIGljb24gaGVyZSIgeG1sbnM9Imh0dHA6Ly93d3cudzMub3JnLzIwMDAvc3ZnIiB4bWxuczp4bGluaz0iaHR0cDovL3d3dy53My5vcmcvMTk5OS94bGluayIgdmlld0JveD0iMCAwIDMyIDMyIj4KICA8ZGVmcz4KICAgIDxsaW5lYXJHcmFkaWVudCBpZD0ibGluZWFyLWdyYWRpZW50IiB4MT0iOCIgeTE9IjUiIHgyPSIyMSIgeTI9IjUiIGdyYWRpZW50VW5pdHM9InVzZXJTcGFjZU9uVXNlIj4KICAgICAgPHN0b3Agb2Zmc2V0PSIwIiBzdG9wLW9wYWNpdHk9IjAiLz4KICAgICAgPHN0b3Agb2Zmc2V0PSIwLjciLz4KICAgIDwvbGluZWFyR3JhZGllbnQ+CiAgICA8bWFzayBpZD0ibWFzayIgeD0iMCIgeT0iMCIgd2lkdGg9IjMyIiBoZWlnaHQ9IjMyIiBtYXNrVW5pdHM9InVzZXJTcGFjZU9uVXNlIj4KICAgICAgPGc+CiAgICAgICAgPHBhdGggZD0iTTI4LDE2djZINFY2SDIwVjRINEEyLDIsMCwwLDAsMiw2VjIyYTIsMiwwLDAsMCwyLDJoOHY0SDh2MkgyNFYyOEgyMFYyNGg4YTIsMiwwLDAsMCwyLTJWMTZaTTE4LDI4SDE0VjI0aDRaIiBzdHlsZT0iZmlsbDogI2ZmZiIvPgogICAgICAgIDxyZWN0IHg9IjgiIHk9IjMiIHdpZHRoPSIxMyIgaGVpZ2h0PSI0IiBzdHlsZT0iZmlsbDogdXJsKCNsaW5lYXItZ3JhZGllbnQpIi8+CiAgICAgIDwvZz4KICAgIDwvbWFzaz4KICAgIDxsaW5lYXJHcmFkaWVudCBpZD0ibGluZWFyLWdyYWRpZW50LTIiIHgxPSItMzUwMy44MjQiIHkxPSIzMiIgeDI9Ii0zNTMzLjk0MSIgZ3JhZGllbnRUcmFuc2Zvcm09Im1hdHJpeCgxLjA2MywgMCwgMCwgLTEsIDM3NTQuODEzLCAzMikiIGdyYWRpZW50VW5pdHM9InVzZXJTcGFjZU9uVXNlIj4KICAgICAgPHN0b3Agb2Zmc2V0PSIwLjEiIHN0b3AtY29sb3I9IiNlZTUzOTYiLz4KICAgICAgPHN0b3Agb2Zmc2V0PSIwLjkiIHN0b3AtY29sb3I9IiM4YTNmZmMiLz4KICAgIDwvbGluZWFyR3JhZGllbnQ+CiAgPC9kZWZzPgogIDxnPgogICAgPGcgc3R5bGU9Im1hc2s6IHVybCgjbWFzaykiPgogICAgICA8cmVjdCB3aWR0aD0iMzIiIGhlaWdodD0iMzIiIHRyYW5zZm9ybT0idHJhbnNsYXRlKDMyIDMyKSByb3RhdGUoMTgwKSIgc3R5bGU9ImZpbGw6IHVybCgjbGluZWFyLWdyYWRpZW50LTIpIi8+CiAgICA8L2c+CiAgICA8cGF0aCBkPSJNMTEsMTAuOTM4aDQuODkxbDEuNjkzLDUuOTA2YTEsMSwwLDAsMCwxLjg4MSwwbDIuODIyLTkuOTM4Ljk0MSwzLjM3NWExLjEzMywxLjEzMywwLDAsMCwuOTQuNjU3SDMwbDAtMS4xMjYsMC0uNzVIMjQuOTIxTDIzLjIyOCwzLjE1NmEuOTM1LjkzNSwwLDAsMC0uOTQxLS42NTYsMS4wMjIsMS4wMjIsMCwwLDAtLjk0LjY1NmwtMi44MjIsOS45MzgtLjk0MS0zLjM3NWExLjEzMywxLjEzMywwLDAsMC0uOTQxLS42NTdIMTF2MS44NzZaIiBzdHlsZT0iZmlsbDogIzAwMWQ2YyIvPgogIDwvZz4KPC9zdmc+Cg==;strokeColor=#4277BB;strokeWidth=2;labelBackgroundColor=none;rounded=0;fontFamily=Helvetica;" parent="S_Ya5THD_kvHtzZO9yah-4" vertex="1">
                        <mxGeometry x="69.5" y="467" width="60" height="60" as="geometry"/>
                    </mxCell>
                </UserObject>
                <UserObject link="https://cloud.ibm.com/catalog/services/kms" label="Key Protect" id="S_Ya5THD_kvHtzZO9yah-7">
                    <mxCell style="aspect=fixed;perimeter=ellipsePerimeter;html=1;align=center;shadow=0;dashed=0;fontSize=14;spacingTop=3;image;image=data:image/png,iVBORw0KGgoAAAANSUhEUgAAAGgAAABoCAYAAAAdHLWhAAAOg0lEQVR4Ae3BD1BUh4HA4R9vH8LKug+BCBhkjQI2ycFyTZrbVDYxpFO8WaF3QWY8JZK2F7mZJXdnKzgjF4eOwoyY1Mwd2xnMtMkixmlW2jmBuTWTos1iw5l06i7XWEGasCHiGlzdhXX5qydzw4znuEAa2X3P4fuibt3GItkSWCRrAotkTWCRrIko3OjkMB8PvkPPtdNcCfQQo9KQLj3Jt1K3kq59AqUTUTBP4AK/uvBjfGODzBibGqHXe5pe72lMGTVkP1SIkgkoWHtfDb6xQUJpv1iD2/97lExAoXq8p7kS6GEuHw2+g5IJKNSVwAXmo9d7GiUTWCRrAg+4GJUGJRNQqMyEDcxHVsIGlExAoZLj1pH90CZmE6PSkLeqHCUTUbDnV+9iWveXbdxNiknlhXWvI8Ws5Kty+oLER6vQLV1CpIlEUP+Ncfad9+DyBXH5RjEmxfFskoaKjCTio1XMJVZchinjJ2SvKKLHe4orgR6kmFTSpSfJXL6BWHEZ83V9Yopdrku0DvrxTUwxTYpW8craJCoykoiPVhEJIhFyxH2NXa5L+CammOEYCuAYCtDkvobNoEMvqZmPdO0TpGuf4C91fWKK7zr6cPlGuZNvYor9f/JwYtDHe8a1xEerCDeBCOi/Mc4u1yV8E1Pci/vGOCVd/YRLSddnuHyjhOLyjbL/vIdIEIiAfec9+CammI37xjhH3NdYaP03xnEMBZjLEfc1IkEgAj4YCjAfJy75WGgfDAWYD9/EFB8MjRBuAhHgvjHOfFyfmGKhXR+fQs4EIiBHimU+dEuXsND08bHMV46kJtwEIqAoVWI+ilZKLLRnkjSkL13CXIxJccRHqwg3gQioyEhCilYxG2NSHEWpWsLhtZyVzEaKVvFazkoiQSAC4qNVvGdcQ/rSJdyLMSkOm2E14VKUquVdw2qkaBV3S1+6hPeMa9BLaiJBJEL0kpqz+Zkc6b/GB0MjXJ+YQrd0Cc8+pOHF9OWEW1GqlqJNj3Ni0I/repBpOfFqilK1RJJIBMVHq3glI4lXMpKQi6JULUWpWuRCYJGsCSySNZEHQOfAYbqvtOIbu0SsuIzM5RvIW1WOFJOK0oko2NjUCO/8cQeewAVmjE4O0/1lK73XTrP1scOsiMtCyQQU7P1PX8MTuMC9jE4O884nOxibGkHJBBTKNzZI95etzGZ0cpjuK60omYBC+cYuMR893lMomYCCBIJjfB2tnU76L19FSQQUotbazhM/2McMKWYl85EuPcmM7r4BDC/XUWttxzcSRAlEZK6100mVxYbb42Wa2+MlPTkBKSaVrIQN9HhPE0qsuIzshwqZ0XrGiT8QpM7aTrP9Q6rLNlG60YCcCchUIDhG8Z6fsWVvI26PlxnN9g+ZYcr4Cclx6wjl+dW7kGJSmeb2eHFdHGCG2+OlvL6J4j0/IxAcQ64EIswTuEDn5434xga5U5w6hreqv4+kUXOnhpYO3B4v02JUGrY+fpi8VeXEisuYkZWwgR/kHCP7oU3M2HGgibtJGjU1PywiTh3DnQITV+n8vBFP4AKRFnXrNiLAE7hAe18NVwI9zIgVl/Ho8u+x/uFyNOqlTHM4e9m48xB3yslIo+M/KlHHRDMf7/7mI75f+xZ3sx/aiVGfyYyOi7/Ada2J0clhZqyIy8K0tobkuHVEgqrmNsLMN3aJpu6X8I8NcqfJm+NcvuGif/h3ZGr/liXR0ehSEnF7ruK6OMA0oz6Tf9+5lbQVy5mvx9c8TOF6PT3uy7g9XqYZc7OoLjMx4y3XVnqu/xeTN8e5U2DiKueHTrIm/ttoliQRbqqa2wiz9r4artzoIZTAxFVuTalZk/BNpkURxdlP/kzj7u3s2/F3JCdo+aqSE7SUbnyanLVpnP3kU17ZnE9ORhrTfnPx5/RctxPK1K1xvMHPyF5RSLiJRECv9zRz6b52hOf5IdO+861HOX9sP/dDYZ6ewjw9vpEgM7qvHWEubv/vGZ0cJlZcRjgJhFnduw3Mx+jkMIPXv2Ba7JJo7jdJo2aad8TL6OQw8/HTX1kJN5Ewae10UmWxMS4M8HIF85KwLJ6FJsUtY76aT3Zx5NeXqTeXUJinJxxEFpjr4gBVFhsOZy//ZyljoypiYqeYjRSzkhhVHAtNFRWNFLMS39gl5tL/qRbwsmVvI0Z9Jo27t6NLSWQhqWpuYwH4RoL886Fj/Msbx3B7vNxJjL6J7pFhZvO9rDqWx64iHFI1j+O68p/M5uzvUujrjWeG2+PF0nIK38gNnnpsDbFLolkIqprbuM9qre1s3/dzPj7/GffiGYwjI+s6mmUT3Ms3kzfzZOpWwkUbk8LUrQkGhs9xL57BpZxoWcvkpMDdPjr/GW+ecBAbE81Tjz3C/aaquY37yHGuh/L6I4xNTBLK5KTAH11JiMISdOlj3IqaJFZcxpr4b/PCutfJXlFIuK2WnuLRpAJGxq8QmLjK5M1xVFFL+cN/r+bXtlWMjqoIZWxikvc/+oRn9JnoUhK5n0QiZHRUxXv2ZN6zJ7Px2SRqy/+eb6T8NZGUqF7NC+te50+X/4ClpYNftPQRaSIyYP/tEPbfvsmeMhMVxflIGjWRUmttp+F4B/5AEDkQCBOjPpO51FnbMbxcS2unk3BznOvh0X/4N+qs7fgDQWazrcBAuIiESXWZCUmzlCqLDYezl1DcHi9b9jZi1GfSuHs7upRE5tJ/Y5wj/deYkROvpihVy3z0X75KlcVG2xkXc8lem8ZB82aMuVkcPdlFOIiEUU5GGvZDO2m2d1FrbcPt8RKKw9nLY1tfZU+ZiYrifCSNmnvZ5bpEQ98Qd8uRYnnziVXoJTWh1FrbaTjegT8QZDbaODXVL5moKM4n3EQioHSjgcI8PQ0tHdRZ25lNnbWdZvuH1JtLKMzTc6ddrks09A1xLy7fKN91/JkLBd8gPlrFnRznethxoAm3x8tcthUYOGguQdKoiQSRCJE0aqrLTJQWGCg/0ITD2Usobo+XLXsbMeozady9HV1KIv03xmnoG2I2vokp9p/38FrOSqb1X75KlcVG2xkXczHqM6k3l5CTkUYkiUSYLiUR+6GdtHY6qbLYcHu8hOJw9vLY1lfZU2YimP1XzMeJQT+vrllOQ0sHDcc78AeCzEYbp+aguYTSjQbkQEQmCvP0PJObRUNLB3XWdmZTZ21Hm9BJ1NMGbq15hNl8/j8XMLzdjNvjZS7m4ueoLtuEpFEjFyIyImnUVJeZKC0wUH6gCYezl1D8Xh9C+0luPbySm995DrTL+H/8wwjvnyLqi0u4mZ1Rn0m9uYScjDTkRkSGdCmJ2A/tpLXTSZXFhtvjJZSoLy6hsh7llj6bm3/zJNOEc91Enf2YuWjj1Bw0l1C60YBcichYYZ6eZ3KzaGjpoM7azmyinN2ozl+AmBgYHmYu5uLnqC7bhKRRI2ciMidp1FSXmSgtMFB+oAmHs5eQxsdhfJzZGPWZ1JtLyMlIQwlEFEKXkoj90E5aO51UWWy4PV6+ivTkBOrNJRTm6VESEYUpzNPzTG4WDS0dNBzvwB8IMpc9ZSYqivORNGqURkSBJI2a6jITpQUGqiw22s64uBejPpPG3dvRpSSiVAIKpktJ5Jf7/gmjPpO7GfWZ2A/tRJeSiJIJLJI1gUWyJrBI1gQWyZrAIlkTWCRrAotkTWCRrAkskjWBRbImsEjWBBbJmsAiWRMJk+sjQR4EvpEglRYb4SISJlv2NrKtwMBBcwmSRo0SNbR0UPt2O/5AkHARCaOjJ7to7XRS/ZKJiuJ8lMJxrodKy3G6+wYIN5Ew8weC7LYcx3K8g8O7t2PMzUKufCNBKi02jp7sYi7Za9NIT0nkfhO5z4y5Wdh/+q/sONCE2+MlFLfHy8YfvcGm9TnUm0vQpSQiJw0tHdS+3Y4/EGQ22jg11S+ZqCjOZyGILABjbhbnj+2n1tpOw/EO/IEgobSdcfHBuV4qNudTUZyPpFETSY5zPVRajtPdN8BcthUYOGguQdKoWSgiC6i6zERFcT6VFhtHT3YRij8QpM7aTrP9Q+rNJRTm6Qk330iQWmsblpZTzCV7bRoHzZsx5max0EQWmKRRc3j3dl4sMFBpOU533wChuD1etuxtxKjPpN5cQk5GGuHQbO+i0mLDHwgyG22cmuqXTFQU5xMuImFizM2i6809NNu7qLTY8AeChOJw9vL0jjrMxc9RXbYJSaNmIbguDlBlseFw9jKXbQUGDppLkDRqwkkkzEo3GijM01NrbcPScorZWFpOccTexUFzCaUbDdwvvpEgtdY2LC2nmEv22jQOmjdjzM0iEkQiQNKoqTeXYC7Op/xAEw5nL6H4A0HK65toaOngoHkzxtwsvo5mexeVFhv+QJDZaOPUVGzOp7rMRCSJRJAuJRH7oZ20djqpsthwe7yE0t03wMYfvcG2AgPVZSZ0KYl8Fa6LA1RZbDicvcxl0/oc6s0l6FISiTQRGSjM0/NMbhYNLR00HO/AHwgSytGTXbR2OqnYnE91mYm5+EaC1FrbsLScYi7pyQkc3r0dY24WciEiE5JGTXWZidICA1UWG21nXITiDwSps7bTbP+Qw7u3E0qzvYtKiw1/IMhstHFqKjbnU11mQm6ibt2GDDnO9VBpOU533wALadP6HOrNJehSEpEjVc1tyJAuJZF/LDIiadSc/eRTxiYmuZ/SkxP45b5yfry1gHjNUuRKROYqivN5seBpKi02jp7s4uvSxqmp2JxPdZkJJRBRAEmj5vDu7VQU51NlseFw9vKX2LQ+h3pzCbqURJRCREFyMtKwH9pJs72LWmsbbo+X+UhPTqDeXEJhnh6lEVGg0o0GCvP0NLR0UGdtZzZ7ykxUFOcjadQokYhCSRo11WUmSgsMlB9owuHs5U5GfSaNu7ejS0lEyUQUTpeSiP3QThznethxoIlp9eYSCvP0PAhEHhDG3CzOH9vPg0ZgkawJLJI1gUWy9r+/qziOV1CZAgAAAABJRU5ErkJggg==;strokeColor=#4277BB;strokeWidth=2;labelBackgroundColor=none;rounded=0;fontFamily=Helvetica;" parent="S_Ya5THD_kvHtzZO9yah-4" vertex="1">
                        <mxGeometry x="69.5" y="230" width="60" height="60" as="geometry"/>
                    </mxCell>
                </UserObject>
                <mxCell id="S_Ya5THD_kvHtzZO9yah-8" value="Object Storage" style="aspect=fixed;perimeter=ellipsePerimeter;html=1;align=center;shadow=0;dashed=0;fontSize=14;spacingTop=3;image;image=data:image/svg+xml,PHN2ZyB4bWxucz0iaHR0cDovL3d3dy53My5vcmcvMjAwMC9zdmciIHhtbG5zOnhsaW5rPSJodHRwOi8vd3d3LnczLm9yZy8xOTk5L3hsaW5rIiB3aWR0aD0iMzIiIGhlaWdodD0iMzIiIHZpZXdCb3g9IjAgMCAzMiAzMiI+PGRlZnM+PHN0eWxlPi5he2ZpbGw6I2ZmZjt9LmJ7ZmlsbDp1cmwoI2EpO30uY3ttYXNrOnVybCgjYik7fS5ke2ZpbGw6dXJsKCNjKTt9LmV7ZmlsbDojMDAxZDZjO308L3N0eWxlPjxsaW5lYXJHcmFkaWVudCBpZD0iYSIgeDE9Ii0zMzEuNSIgeTE9Ii0xMjcuNSIgeDI9Ii0zMjEuNSIgeTI9Ii0xMjcuNSIgZ3JhZGllbnRUcmFuc2Zvcm09InRyYW5zbGF0ZSgzMzUuNSAxNDguNSkiIGdyYWRpZW50VW5pdHM9InVzZXJTcGFjZU9uVXNlIj48c3RvcCBvZmZzZXQ9IjAuMTMiLz48c3RvcCBvZmZzZXQ9IjAuODkiIHN0b3Atb3BhY2l0eT0iMCIvPjwvbGluZWFyR3JhZGllbnQ+PG1hc2sgaWQ9ImIiIHg9IjAiIHk9IjAiIHdpZHRoPSIzMiIgaGVpZ2h0PSIzMiIgbWFza1VuaXRzPSJ1c2VyU3BhY2VPblVzZSI+PGNpcmNsZSBjbGFzcz0iYSIgY3g9IjciIGN5PSIyNSIgcj0iMSIvPjxwYXRoIGNsYXNzPSJhIiBkPSJNMjgsMjBIMjZ2MmgydjZINFYyMmg5Ljk0VjIwSDRhMiwyLDAsMCwwLTIsMnY2YTIsMiwwLDAsMCwyLDJIMjhhMiwyLDAsMCwwLDItMlYyMkEyLDIsMCwwLDAsMjgsMjBaIi8+PHJlY3QgY2xhc3M9ImIiIHg9IjQiIHk9IjE5IiB3aWR0aD0iMTAiIGhlaWdodD0iNCIgdHJhbnNmb3JtPSJ0cmFuc2xhdGUoMTggNDIpIHJvdGF0ZSgxODApIi8+PC9tYXNrPjxsaW5lYXJHcmFkaWVudCBpZD0iYyIgeTE9IjMyIiB4Mj0iMzIiIGdyYWRpZW50VW5pdHM9InVzZXJTcGFjZU9uVXNlIj48c3RvcCBvZmZzZXQ9IjAuMSIgc3RvcC1jb2xvcj0iI2E1NmVmZiIvPjxzdG9wIG9mZnNldD0iMC45IiBzdG9wLWNvbG9yPSIjMGY2MmZlIi8+PC9saW5lYXJHcmFkaWVudD48L2RlZnM+PGcgY2xhc3M9ImMiPjxyZWN0IGNsYXNzPSJkIiB3aWR0aD0iMzIiIGhlaWdodD0iMzIiLz48L2c+PHBhdGggY2xhc3M9ImUiIGQ9Ik0xOCwxMEgxMFYyaDhaTTEyLDhoNFY0SDEyWiIvPjxwYXRoIGNsYXNzPSJlIiBkPSJNMjIsMTRIMTZ2OGg4VjE2aDZWOEgyMlptMCw2SDE4VjE2aDRabTYtMTB2NEgyNFYxMFoiLz48L3N2Zz4=;strokeColor=#4277BB;strokeWidth=2;labelBackgroundColor=none;fontFamily=Helvetica;" parent="S_Ya5THD_kvHtzZO9yah-4" vertex="1">
                    <mxGeometry x="69.5" y="598" width="60" height="60" as="geometry"/>
                </mxCell>
                <UserObject link="https://cloud.ibm.com/catalog/services/logdna" label="&lt;font data-font-src=&quot;https://fonts.googleapis.com/css?family=Poppins&quot; style=&quot;font-size: 14px;&quot;&gt;Logging&lt;/font&gt;" id="phzYhDYShonhGR5R4GaK-0">
                    <mxCell style="aspect=fixed;perimeter=ellipsePerimeter;html=1;align=center;shadow=0;dashed=0;fontSize=14;spacingTop=3;image;image=data:image/svg+xml,PHN2ZyBpZD0iQnVpbGRfaWNvbl9oZXJlIiBkYXRhLW5hbWU9IkJ1aWxkIGljb24gaGVyZSIgeG1sbnM9Imh0dHA6Ly93d3cudzMub3JnLzIwMDAvc3ZnIiB4bWxuczp4bGluaz0iaHR0cDovL3d3dy53My5vcmcvMTk5OS94bGluayIgdmlld0JveD0iMCAwIDMyIDMyIj4KICA8ZGVmcz4KICAgIDxsaW5lYXJHcmFkaWVudCBpZD0ibGluZWFyLWdyYWRpZW50IiB4MT0iOCIgeTE9IjUiIHgyPSIyMSIgeTI9IjUiIGdyYWRpZW50VW5pdHM9InVzZXJTcGFjZU9uVXNlIj4KICAgICAgPHN0b3Agb2Zmc2V0PSIwIiBzdG9wLW9wYWNpdHk9IjAiLz4KICAgICAgPHN0b3Agb2Zmc2V0PSIwLjciLz4KICAgIDwvbGluZWFyR3JhZGllbnQ+CiAgICA8bWFzayBpZD0ibWFzayIgeD0iMCIgeT0iMCIgd2lkdGg9IjMyIiBoZWlnaHQ9IjMyIiBtYXNrVW5pdHM9InVzZXJTcGFjZU9uVXNlIj4KICAgICAgPGc+CiAgICAgICAgPHBhdGggZD0iTTI4LDE2djZINFY2SDIwVjRINEEyLDIsMCwwLDAsMiw2VjIyYTIsMiwwLDAsMCwyLDJoOHY0SDh2MkgyNFYyOEgyMFYyNGg4YTIsMiwwLDAsMCwyLTJWMTZaTTE4LDI4SDE0VjI0aDRaIiBzdHlsZT0iZmlsbDogI2ZmZiIvPgogICAgICAgIDxyZWN0IHg9IjgiIHk9IjMiIHdpZHRoPSIxMyIgaGVpZ2h0PSI0IiBzdHlsZT0iZmlsbDogdXJsKCNsaW5lYXItZ3JhZGllbnQpIi8+CiAgICAgIDwvZz4KICAgIDwvbWFzaz4KICAgIDxsaW5lYXJHcmFkaWVudCBpZD0ibGluZWFyLWdyYWRpZW50LTIiIHgxPSItMzUwMy44MjQiIHkxPSIzMiIgeDI9Ii0zNTMzLjk0MSIgZ3JhZGllbnRUcmFuc2Zvcm09Im1hdHJpeCgxLjA2MywgMCwgMCwgLTEsIDM3NTQuODEzLCAzMikiIGdyYWRpZW50VW5pdHM9InVzZXJTcGFjZU9uVXNlIj4KICAgICAgPHN0b3Agb2Zmc2V0PSIwLjEiIHN0b3AtY29sb3I9IiMwOGJkYmEiLz4KICAgICAgPHN0b3Agb2Zmc2V0PSIwLjkiIHN0b3AtY29sb3I9IiMwZjYyZmUiLz4KICAgIDwvbGluZWFyR3JhZGllbnQ+CiAgPC9kZWZzPgogIDxnPgogICAgPGcgc3R5bGU9Im1hc2s6IHVybCgjbWFzaykiPgogICAgICA8cmVjdCB3aWR0aD0iMzIiIGhlaWdodD0iMzIiIHRyYW5zZm9ybT0idHJhbnNsYXRlKDMyIDMyKSByb3RhdGUoMTgwKSIgc3R5bGU9ImZpbGw6IHVybCgjbGluZWFyLWdyYWRpZW50LTIpIi8+CiAgICA8L2c+CiAgICA8cmVjdCB4PSIxOCIgeT0iNCIgd2lkdGg9IjEyIiBoZWlnaHQ9IjIiIHN0eWxlPSJmaWxsOiAjMDAxZDZjIi8+CiAgICA8cmVjdCB4PSIxOCIgeT0iOCIgd2lkdGg9IjEyIiBoZWlnaHQ9IjIiIHN0eWxlPSJmaWxsOiAjMDAxZDZjIi8+CiAgICA8cmVjdCB4PSIxOCIgeT0iMTIiIHdpZHRoPSI2IiBoZWlnaHQ9IjIiIHN0eWxlPSJmaWxsOiAjMDAxZDZjIi8+CiAgPC9nPgo8L3N2Zz4K;strokeColor=#4277BB;strokeWidth=2;labelBackgroundColor=none;rounded=0;fontFamily=Helvetica;" parent="S_Ya5THD_kvHtzZO9yah-4" vertex="1">
                        <mxGeometry x="69.5" y="100" width="60" height="60" as="geometry"/>
                    </mxCell>
                </UserObject>
                <mxCell id="phzYhDYShonhGR5R4GaK-1" style="edgeStyle=orthogonalEdgeStyle;rounded=0;sketch=0;orthogonalLoop=1;jettySize=auto;html=1;exitX=0.5;exitY=1;exitDx=0;exitDy=0;fontFamily=Helvetica;fontColor=#000000;strokeColor=#000000;fontSize=14;" parent="S_Ya5THD_kvHtzZO9yah-3" source="S_Ya5THD_kvHtzZO9yah-4" target="S_Ya5THD_kvHtzZO9yah-4" edge="1">
                    <mxGeometry relative="1" as="geometry"/>
                </mxCell>
                <mxCell id="TIKsBMdkQv7yq_7XdX7K-1" style="edgeStyle=orthogonalEdgeStyle;rounded=0;orthogonalLoop=1;jettySize=auto;html=1;exitX=0;exitY=0.5;exitDx=0;exitDy=0;exitPerimeter=0;entryX=0.998;entryY=0.284;entryDx=0;entryDy=0;entryPerimeter=0;" parent="S_Ya5THD_kvHtzZO9yah-1" source="SaUbRlYY-xDc7NYVYQWE-19" target="S_Ya5THD_kvHtzZO9yah-12" edge="1">
                    <mxGeometry relative="1" as="geometry"/>
                </mxCell>
                <mxCell id="TIKsBMdkQv7yq_7XdX7K-6" style="edgeStyle=orthogonalEdgeStyle;rounded=0;orthogonalLoop=1;jettySize=auto;html=1;exitX=0;exitY=0.5;exitDx=0;exitDy=0;exitPerimeter=0;entryX=0.998;entryY=0.284;entryDx=0;entryDy=0;entryPerimeter=0;" parent="S_Ya5THD_kvHtzZO9yah-1" source="SaUbRlYY-xDc7NYVYQWE-19" target="S_Ya5THD_kvHtzZO9yah-12" edge="1">
                    <mxGeometry relative="1" as="geometry">
                        <mxPoint x="-80" y="-97.75" as="sourcePoint"/>
                        <mxPoint x="-127.96199999999999" y="-96.98800000000006" as="targetPoint"/>
                        <Array as="points">
                            <mxPoint x="-103" y="-98"/>
                        </Array>
                    </mxGeometry>
                </mxCell>
                <mxCell id="TIKsBMdkQv7yq_7XdX7K-16" style="edgeStyle=orthogonalEdgeStyle;rounded=0;sketch=0;orthogonalLoop=1;jettySize=auto;html=1;exitX=1;exitY=0.5;exitDx=0;exitDy=0;entryX=0;entryY=0.553;entryDx=0;entryDy=0;entryPerimeter=0;" parent="S_Ya5THD_kvHtzZO9yah-1" source="S_Ya5THD_kvHtzZO9yah-28" target="S_Ya5THD_kvHtzZO9yah-4" edge="1">
                    <mxGeometry relative="1" as="geometry"/>
                </mxCell>
                <mxCell id="SaUbRlYY-xDc7NYVYQWE-25" value="instance-group" parent="S_Ya5THD_kvHtzZO9yah-0"/>
                <mxCell id="TIKsBMdkQv7yq_7XdX7K-5" value="Instance&lt;br style=&quot;font-size: 13px;&quot;&gt;template" style="outlineConnect=0;dashed=0;verticalLabelPosition=bottom;verticalAlign=top;align=center;html=1;shape=mxgraph.aws3.template;fillColor=#759C3E;gradientColor=none;rounded=0;shadow=0;labelBackgroundColor=none;sketch=0;fontFamily=Helvetica;fontColor=#000000;strokeColor=#919191;strokeWidth=2;fontSize=13;" parent="SaUbRlYY-xDc7NYVYQWE-25" vertex="1">
                    <mxGeometry x="-80" y="250" width="55.5" height="64.5" as="geometry"/>
                </mxCell>
                <mxCell id="S_Ya5THD_kvHtzZO9yah-12" value="Frontend instance group" style="fontStyle=0;verticalAlign=top;align=center;spacingTop=-2;fillColor=#dae8fc;rounded=0;whiteSpace=wrap;html=1;strokeColor=#6c8ebf;strokeWidth=2;dashed=1;container=1;collapsible=0;expand=0;recursiveResize=0;fontFamily=Helvetica;fontSize=13;" parent="SaUbRlYY-xDc7NYVYQWE-25" vertex="1">
                    <mxGeometry x="-608" y="-166" width="481" height="243" as="geometry"/>
                </mxCell>
                <mxCell id="S_Ya5THD_kvHtzZO9yah-17" value="Backend instance group" style="fontStyle=0;verticalAlign=top;align=center;spacingTop=-2;fillColor=#dae8fc;rounded=0;whiteSpace=wrap;html=1;strokeColor=#6c8ebf;strokeWidth=2;dashed=1;container=1;collapsible=0;expand=0;recursiveResize=0;fontFamily=Helvetica;fontSize=13;" parent="SaUbRlYY-xDc7NYVYQWE-25" vertex="1">
                    <mxGeometry x="-608" y="224" width="481" height="243" as="geometry"/>
                </mxCell>
                <mxCell id="SaUbRlYY-xDc7NYVYQWE-19" value="Instance&lt;br style=&quot;font-size: 13px;&quot;&gt;template" style="outlineConnect=0;dashed=0;verticalLabelPosition=bottom;verticalAlign=top;align=center;html=1;shape=mxgraph.aws3.template;fillColor=#759C3E;gradientColor=none;rounded=0;shadow=0;labelBackgroundColor=none;sketch=0;fontFamily=Helvetica;fontColor=#000000;strokeColor=#919191;strokeWidth=2;fontSize=13;" parent="SaUbRlYY-xDc7NYVYQWE-25" vertex="1">
                    <mxGeometry x="-80" y="-130" width="55.5" height="64.5" as="geometry"/>
                </mxCell>
                <mxCell id="TIKsBMdkQv7yq_7XdX7K-7" style="edgeStyle=orthogonalEdgeStyle;rounded=0;orthogonalLoop=1;jettySize=auto;html=1;exitX=0;exitY=0.5;exitDx=0;exitDy=0;exitPerimeter=0;entryX=0.998;entryY=0.284;entryDx=0;entryDy=0;entryPerimeter=0;" parent="SaUbRlYY-xDc7NYVYQWE-25" source="SaUbRlYY-xDc7NYVYQWE-19" target="S_Ya5THD_kvHtzZO9yah-12" edge="1">
                    <mxGeometry relative="1" as="geometry">
                        <mxPoint x="-80" y="-97.75" as="sourcePoint"/>
                        <mxPoint x="-127.96199999999999" y="-96.98800000000006" as="targetPoint"/>
                        <Array as="points">
                            <mxPoint x="-104" y="-98"/>
                        </Array>
                    </mxGeometry>
                </mxCell>
                <mxCell id="SaUbRlYY-xDc7NYVYQWE-0" value="lb" parent="S_Ya5THD_kvHtzZO9yah-0"/>
                <mxCell id="S_Ya5THD_kvHtzZO9yah-22" value="Public load balancer security group" style="fontStyle=0;verticalAlign=top;align=center;spacingTop=-2;fillColor=#d5e8d4;rounded=0;whiteSpace=wrap;html=1;strokeColor=#82b366;strokeWidth=2;dashed=1;container=1;collapsible=0;expand=0;recursiveResize=0;fontFamily=Helvetica;fontSize=13;" parent="SaUbRlYY-xDc7NYVYQWE-0" vertex="1">
                    <mxGeometry x="-511" y="-295" width="305" height="117" as="geometry"/>
                </mxCell>
                <mxCell id="S_Ya5THD_kvHtzZO9yah-23" value="" style="aspect=fixed;perimeter=ellipsePerimeter;html=1;align=center;shadow=0;dashed=0;fontColor=#4277BB;labelBackgroundColor=#ffffff;fontSize=12;spacingTop=3;image;image=img/lib/ibm/vpc/LoadBalancer.svg;fontFamily=Helvetica;" parent="S_Ya5THD_kvHtzZO9yah-22" vertex="1">
                    <mxGeometry x="116" y="28.5" width="60" height="60" as="geometry"/>
                </mxCell>
                <mxCell id="SaUbRlYY-xDc7NYVYQWE-5" style="edgeStyle=orthogonalEdgeStyle;rounded=0;orthogonalLoop=1;jettySize=auto;html=1;exitX=1;exitY=0.5;exitDx=0;exitDy=0;entryX=0.5;entryY=0;entryDx=0;entryDy=0;fontFamily=Helvetica;" parent="SaUbRlYY-xDc7NYVYQWE-0" edge="1">
                    <mxGeometry relative="1" as="geometry">
                        <mxPoint x="-335" y="-236.5" as="sourcePoint"/>
                        <mxPoint x="-226" y="-52.5" as="targetPoint"/>
                    </mxGeometry>
                </mxCell>
                <mxCell id="SaUbRlYY-xDc7NYVYQWE-7" style="edgeStyle=orthogonalEdgeStyle;rounded=0;orthogonalLoop=1;jettySize=auto;html=1;exitX=1;exitY=0.75;exitDx=0;exitDy=0;entryX=0.5;entryY=0;entryDx=0;entryDy=0;fontFamily=Helvetica;" parent="SaUbRlYY-xDc7NYVYQWE-0" edge="1">
                    <mxGeometry relative="1" as="geometry">
                        <mxPoint x="-347.1671842700023" y="169.91640786499875" as="sourcePoint"/>
                        <mxPoint x="-226" y="337.5" as="targetPoint"/>
                    </mxGeometry>
                </mxCell>
                <mxCell id="SaUbRlYY-xDc7NYVYQWE-8" style="edgeStyle=orthogonalEdgeStyle;rounded=0;orthogonalLoop=1;jettySize=auto;html=1;exitX=0.5;exitY=1;exitDx=0;exitDy=0;entryX=1;entryY=0.25;entryDx=0;entryDy=0;fontFamily=Helvetica;" parent="SaUbRlYY-xDc7NYVYQWE-0" edge="1">
                    <mxGeometry relative="1" as="geometry">
                        <Array as="points">
                            <mxPoint x="-226" y="143"/>
                        </Array>
                        <mxPoint x="-226" y="7.5" as="sourcePoint"/>
                        <mxPoint x="-347.1671842700023" y="143.08359213500125" as="targetPoint"/>
                    </mxGeometry>
                </mxCell>
                <mxCell id="S_Ya5THD_kvHtzZO9yah-24" value="Private load balancer security group" style="fontStyle=0;verticalAlign=top;align=center;spacingTop=-2;fillColor=#d5e8d4;rounded=0;whiteSpace=wrap;html=1;strokeColor=#82b366;strokeWidth=2;dashed=1;container=1;collapsible=0;expand=0;recursiveResize=0;fontFamily=Helvetica;fontSize=13;" parent="SaUbRlYY-xDc7NYVYQWE-0" vertex="1">
                    <mxGeometry x="-520" y="98" width="305" height="117" as="geometry"/>
                </mxCell>
                <mxCell id="S_Ya5THD_kvHtzZO9yah-25" value="" style="aspect=fixed;perimeter=ellipsePerimeter;html=1;align=center;shadow=0;dashed=0;fontColor=#4277BB;labelBackgroundColor=#ffffff;fontSize=12;spacingTop=3;image;image=img/lib/ibm/vpc/LoadBalancer.svg;fontFamily=Helvetica;" parent="S_Ya5THD_kvHtzZO9yah-24" vertex="1">
                    <mxGeometry x="117" y="28" width="60" height="60" as="geometry"/>
                </mxCell>
                <mxCell id="S_Ya5THD_kvHtzZO9yah-9" value="vpc-1a" parent="S_Ya5THD_kvHtzZO9yah-0"/>
                <mxCell id="S_Ya5THD_kvHtzZO9yah-10" value="VPC-SCALE" style="shape=mxgraph.ibm.box;prType=vpc;fontStyle=0;verticalAlign=top;align=left;spacingLeft=32;spacingTop=4;fillColor=none;rounded=0;whiteSpace=wrap;html=1;strokeColor=#4376BB;strokeWidth=2;dashed=0;container=1;spacing=-4;collapsible=0;expand=0;recursiveResize=0;fontFamily=Helvetica;fontSize=14;" parent="S_Ya5THD_kvHtzZO9yah-9" vertex="1">
                    <mxGeometry x="-630" y="-310" width="628" height="793" as="geometry"/>
                </mxCell>
                <UserObject link="https://cloud.ibm.com/catalog/services/is.endpoint-gateway" label="&lt;font color=&quot;#000000&quot;&gt;Virtual Private Endpoint&lt;/font&gt;" id="S_Ya5THD_kvHtzZO9yah-28">
                    <mxCell style="aspect=fixed;perimeter=ellipsePerimeter;html=1;align=center;shadow=0;dashed=0;fontColor=#4277BB;fontSize=13;spacingTop=3;image;image=data:image/svg+xml,PD94bWwgdmVyc2lvbj0iMS4wIiBlbmNvZGluZz0idXRmLTgiPz4KPCEtLSBHZW5lcmF0b3I6IEFkb2JlIElsbHVzdHJhdG9yIDI0LjAuMSwgU1ZHIEV4cG9ydCBQbHVnLUluIC4gU1ZHIFZlcnNpb246IDYuMDAgQnVpbGQgMCkgIC0tPgo8c3ZnIHZlcnNpb249IjEuMSIgaWQ9InZwY19lbmRwb2ludF9pY29uIiB4bWxucz0iaHR0cDovL3d3dy53My5vcmcvMjAwMC9zdmciIHhtbG5zOnhsaW5rPSJodHRwOi8vd3d3LnczLm9yZy8xOTk5L3hsaW5rIiB4PSIwcHgiCgkgeT0iMHB4IiB2aWV3Qm94PSIwIDAgMzIgMzIiIHN0eWxlPSJlbmFibGUtYmFja2dyb3VuZDpuZXcgMCAwIDMyIDMyOyIgeG1sOnNwYWNlPSJwcmVzZXJ2ZSI+CjxzdHlsZSB0eXBlPSJ0ZXh0L2NzcyI+Cgkuc3Qwe2ZpbGw6dXJsKCN2cGNfZ3JhZGllbnRfYm90dG9tXzFfKTt9Cgkuc3Qxe2ZpbGw6dXJsKCN2cGNfZ3JhZGllbnRfdG9wXzFfKTt9Cgkuc3Qye2ZpbGw6dXJsKCNlbmRwb2ludF9ncmFkaWVudF9yaWdodF8xXyk7fQoJLnN0M3tmaWxsOnVybCgjZW5kcG9pbnRfZ3JhZGllbnRfbGVmdF8xXyk7fQoJLnN0NHtmaWxsOiMwMzE5ODE7fQo8L3N0eWxlPgo8bGluZWFyR3JhZGllbnQgaWQ9InZwY19ncmFkaWVudF9ib3R0b21fMV8iIGdyYWRpZW50VW5pdHM9InVzZXJTcGFjZU9uVXNlIiB4MT0iMC4zNzA4IiB5MT0iMzEuNTI5MiIgeDI9IjMxLjUxMDYiIHkyPSIwLjM4OTQiPgoJPHN0b3AgIG9mZnNldD0iMC4xIiBzdHlsZT0ic3RvcC1jb2xvcjojODgzRkZBIi8+Cgk8c3RvcCAgb2Zmc2V0PSIwLjkiIHN0eWxlPSJzdG9wLWNvbG9yOiNFQzUzODgiLz4KPC9saW5lYXJHcmFkaWVudD4KPHBhdGggaWQ9InZwY19ncmFkaWVudF9ib3R0b20iIGNsYXNzPSJzdDAiIGQ9Ik0yMCwyN0g3Yy0xLjEsMC0yLTAuOS0yLTJWMTEuOGgyVjI1aDEzVjI3eiIvPgo8bGluZWFyR3JhZGllbnQgaWQ9InZwY19ncmFkaWVudF90b3BfMV8iIGdyYWRpZW50VW5pdHM9InVzZXJTcGFjZU9uVXNlIiB4MT0iMC42MzQ3IiB5MT0iMzEuODY1MyIgeDI9IjMxLjcyODIiIHkyPSIwLjc3MTgiPgoJPHN0b3AgIG9mZnNldD0iMC4xIiBzdHlsZT0ic3RvcC1jb2xvcjojODgzRkZBIi8+Cgk8c3RvcCAgb2Zmc2V0PSIwLjkiIHN0eWxlPSJzdG9wLWNvbG9yOiNFQzUzODgiLz4KPC9saW5lYXJHcmFkaWVudD4KPHBhdGggaWQ9InZwY19ncmFkaWVudF90b3AiIGNsYXNzPSJzdDEiIGQ9Ik0yNSwyMWgyVjdjMC0xLjEtMC45LTItMi0ySDEydjJoMTNWMjF6Ii8+CjxsaW5lYXJHcmFkaWVudCBpZD0iZW5kcG9pbnRfZ3JhZGllbnRfcmlnaHRfMV8iIGdyYWRpZW50VW5pdHM9InVzZXJTcGFjZU9uVXNlIiB4MT0iLTQ2NyIgeTE9Ii0zMDciIHgyPSItNDYxIiB5Mj0iLTMwNyIgZ3JhZGllbnRUcmFuc2Zvcm09Im1hdHJpeCg0LjQ4OTcwMGUtMTEgLTEgLTEgLTQuNDg5NzAwZS0xMSAtMjgxIC00NDYpIj4KCTxzdG9wICBvZmZzZXQ9IjAuMTAyNiIgc3R5bGU9InN0b3AtY29sb3I6I0ZGRkZGRiIvPgoJPHN0b3AgIG9mZnNldD0iMSIgc3R5bGU9InN0b3AtY29sb3I6I0ZGRkZGRjtzdG9wLW9wYWNpdHk6MCIvPgo8L2xpbmVhckdyYWRpZW50Pgo8cG9seWdvbiBpZD0iZW5kcG9pbnRfZ3JhZGllbnRfcmlnaHQiIGNsYXNzPSJzdDIiIHBvaW50cz0iMjgsMTUgMjgsMjEgMjQsMjEgMjQsMTUgIi8+CjxsaW5lYXJHcmFkaWVudCBpZD0iZW5kcG9pbnRfZ3JhZGllbnRfbGVmdF8xXyIgZ3JhZGllbnRVbml0cz0idXNlclNwYWNlT25Vc2UiIHgxPSItMzM5IiB5MT0iNTA0IiB4Mj0iLTMzMyIgeTI9IjUwNCIgZ3JhZGllbnRUcmFuc2Zvcm09Im1hdHJpeCgtNC40ODk3MDBlLTExIDEgMSA0LjQ4OTcwMGUtMTEgLTQ5OCAzNTApIj4KCTxzdG9wICBvZmZzZXQ9IjAuMTAyNiIgc3R5bGU9InN0b3AtY29sb3I6I0ZGRkZGRiIvPgoJPHN0b3AgIG9mZnNldD0iMC45OTk2IiBzdHlsZT0ic3RvcC1jb2xvcjojRkZGRkZGO3N0b3Atb3BhY2l0eTowIi8+CjwvbGluZWFyR3JhZGllbnQ+Cjxwb2x5Z29uIGlkPSJlbmRwb2ludF9ncmFkaWVudF9sZWZ0IiBjbGFzcz0ic3QzIiBwb2ludHM9IjQsMTcgNCwxMSA4LDExIDgsMTcgIi8+CjxwYXRoIGlkPSJlbmRwb2ludHMiIGNsYXNzPSJzdDQiIGQ9Ik0yOCwyMmgtNGgtMC42bC00LTRjMC40LTAuNiwwLjYtMS4zLDAuNi0yYzAtMi4yLTEuOC00LTQtNGMtMC43LDAtMS40LDAuMi0yLDAuNmwtNC00VjhWNFYySDgKCUg0SDJ2MnY0djJoMmg0aDAuNmw0LDRjLTAuNCwwLjYtMC42LDEuMy0wLjYsMmMwLDIuMiwxLjgsNCw0LDRjMC43LDAsMS40LTAuMiwyLTAuNmw0LDRWMjR2NHYyaDJoNGgydi0ydi00di0ySDI4eiBNOCw4SDRWNGg0Vjh6CgkgTTE2LDE4Yy0xLjEsMC0yLTAuOS0yLTJzMC45LTIsMi0yczIsMC45LDIsMlMxNy4xLDE4LDE2LDE4eiBNMjgsMjhoLTR2LTRoNFYyOHoiLz4KPC9zdmc+Cg==;strokeColor=#4277BB;strokeWidth=2;labelBackgroundColor=none;rounded=0;fontFamily=Helvetica;" parent="S_Ya5THD_kvHtzZO9yah-10" vertex="1">
                        <mxGeometry x="520" y="407" width="60" height="60" as="geometry"/>
                    </mxCell>
                </UserObject>
                <mxCell id="S_Ya5THD_kvHtzZO9yah-18" value="Zone-1" style="shape=mxgraph.ibm.box;prType=zone;fontStyle=0;verticalAlign=top;align=left;spacingLeft=32;spacingTop=4;fillColor=#E0E0E0;rounded=0;whiteSpace=wrap;html=1;strokeColor=#919191;strokeWidth=1;dashed=0;container=1;spacing=-4;collapsible=0;expand=0;recursiveResize=0;fontFamily=Helvetica;fontSize=13;" parent="S_Ya5THD_kvHtzZO9yah-9" vertex="1">
                    <mxGeometry x="-596" y="254" width="180" height="200" as="geometry"/>
                </mxCell>
                <mxCell id="S_Ya5THD_kvHtzZO9yah-19" value="&lt;font color=&quot;#161616&quot; style=&quot;font-size: 13px;&quot;&gt;&lt;span style=&quot;letter-spacing: 0.16px; font-size: 13px;&quot;&gt;Subnet&lt;/span&gt;&lt;/font&gt;" style="shape=mxgraph.ibm.box;prType=subnet;fontStyle=0;verticalAlign=top;align=left;spacingLeft=32;spacingTop=4;fillColor=#E6F0E2;rounded=0;whiteSpace=wrap;html=1;strokeColor=#00882B;strokeWidth=1;dashed=0;container=1;spacing=-4;collapsible=0;expand=0;recursiveResize=0;fontFamily=Helvetica;fontSize=13;" parent="S_Ya5THD_kvHtzZO9yah-9" vertex="1">
                    <mxGeometry x="-586" y="284" width="160" height="157" as="geometry"/>
                </mxCell>
                <mxCell id="S_Ya5THD_kvHtzZO9yah-21" value="&lt;font style=&quot;font-size: 13px&quot;&gt;&lt;span style=&quot;background-color: rgb(230 , 240 , 226)&quot;&gt;backend-1&lt;/span&gt;&lt;br style=&quot;font-size: 13px&quot;&gt;&lt;/font&gt;" style="aspect=fixed;perimeter=ellipsePerimeter;html=1;align=center;shadow=0;dashed=0;labelBackgroundColor=#ffffff;fontSize=13;spacingTop=3;image;image=img/lib/ibm/vpc/Instance.svg;fontFamily=Helvetica;" parent="S_Ya5THD_kvHtzZO9yah-9" vertex="1">
                    <mxGeometry x="-532" y="337.5" width="60" height="60" as="geometry"/>
                </mxCell>
                <mxCell id="S_Ya5THD_kvHtzZO9yah-13" value="Zone-1" style="shape=mxgraph.ibm.box;prType=zone;fontStyle=0;verticalAlign=top;align=left;spacingLeft=32;spacingTop=4;fillColor=#E0E0E0;rounded=0;whiteSpace=wrap;html=1;strokeColor=#919191;strokeWidth=1;dashed=0;container=1;spacing=-4;collapsible=0;expand=0;recursiveResize=0;fontFamily=Helvetica;fontSize=13;" parent="S_Ya5THD_kvHtzZO9yah-9" vertex="1">
                    <mxGeometry x="-596" y="-136" width="180" height="200" as="geometry"/>
                </mxCell>
                <mxCell id="S_Ya5THD_kvHtzZO9yah-14" value="&lt;font color=&quot;#161616&quot; style=&quot;font-size: 13px;&quot;&gt;&lt;span style=&quot;letter-spacing: 0.16px; font-size: 13px;&quot;&gt;Subnet&lt;/span&gt;&lt;/font&gt;" style="shape=mxgraph.ibm.box;prType=subnet;fontStyle=0;verticalAlign=top;align=left;spacingLeft=32;spacingTop=4;fillColor=#E6F0E2;rounded=0;whiteSpace=wrap;html=1;strokeColor=#00882B;strokeWidth=1;dashed=0;container=1;spacing=-4;collapsible=0;expand=0;recursiveResize=0;fontFamily=Helvetica;fontSize=13;" parent="S_Ya5THD_kvHtzZO9yah-13" vertex="1">
                    <mxGeometry x="10" y="30" width="160" height="157" as="geometry"/>
                </mxCell>
                <mxCell id="S_Ya5THD_kvHtzZO9yah-16" value="&lt;span style=&quot;background-color: rgb(230 , 240 , 226)&quot;&gt;frontend-1&lt;/span&gt;" style="aspect=fixed;perimeter=ellipsePerimeter;align=center;shadow=0;dashed=0;labelBackgroundColor=none;fontSize=13;spacingTop=3;image;image=img/lib/ibm/vpc/Instance.svg;fontFamily=Helvetica;html=1;" parent="S_Ya5THD_kvHtzZO9yah-14" vertex="1">
                    <mxGeometry x="56" y="54" width="60" height="60" as="geometry"/>
                </mxCell>
                <mxCell id="S_Ya5THD_kvHtzZO9yah-27" style="edgeStyle=orthogonalEdgeStyle;rounded=0;orthogonalLoop=1;jettySize=auto;html=1;exitX=0;exitY=0.75;exitDx=0;exitDy=0;entryX=0.5;entryY=0;entryDx=0;entryDy=0;fontFamily=Helvetica;" parent="S_Ya5THD_kvHtzZO9yah-9" source="S_Ya5THD_kvHtzZO9yah-25" target="S_Ya5THD_kvHtzZO9yah-21" edge="1">
                    <mxGeometry relative="1" as="geometry"/>
                </mxCell>
                <mxCell id="S_Ya5THD_kvHtzZO9yah-26" style="edgeStyle=orthogonalEdgeStyle;rounded=0;orthogonalLoop=1;jettySize=auto;html=1;exitX=0;exitY=0.5;exitDx=0;exitDy=0;entryX=0.5;entryY=0;entryDx=0;entryDy=0;fontFamily=Helvetica;" parent="S_Ya5THD_kvHtzZO9yah-9" source="S_Ya5THD_kvHtzZO9yah-23" target="S_Ya5THD_kvHtzZO9yah-16" edge="1">
                    <mxGeometry relative="1" as="geometry"/>
                </mxCell>
                <mxCell id="S_Ya5THD_kvHtzZO9yah-11" style="edgeStyle=orthogonalEdgeStyle;rounded=0;orthogonalLoop=1;jettySize=auto;html=1;exitX=0.5;exitY=1;exitDx=0;exitDy=0;entryX=0;entryY=0.25;entryDx=0;entryDy=0;fontFamily=Helvetica;" parent="S_Ya5THD_kvHtzZO9yah-9" source="S_Ya5THD_kvHtzZO9yah-16" target="S_Ya5THD_kvHtzZO9yah-25" edge="1">
                    <mxGeometry relative="1" as="geometry">
                        <Array as="points">
                            <mxPoint x="-500" y="143"/>
                        </Array>
                    </mxGeometry>
                </mxCell>
                <mxCell id="S_Ya5THD_kvHtzZO9yah-30" value="vpc-1b" parent="S_Ya5THD_kvHtzZO9yah-0"/>
                <mxCell id="S_Ya5THD_kvHtzZO9yah-35" value="Zone-2" style="shape=mxgraph.ibm.box;prType=zone;fontStyle=0;verticalAlign=top;align=left;spacingLeft=32;spacingTop=4;fillColor=#E0E0E0;rounded=0;whiteSpace=wrap;html=1;strokeColor=#919191;strokeWidth=1;dashed=0;container=0;spacing=-4;collapsible=0;expand=0;recursiveResize=0;fontSize=13;fontFamily=Helvetica;" parent="S_Ya5THD_kvHtzZO9yah-30" vertex="1">
                    <mxGeometry x="-320" y="252" width="180" height="202" as="geometry"/>
                </mxCell>
                <mxCell id="S_Ya5THD_kvHtzZO9yah-36" value="&lt;font color=&quot;#161616&quot; style=&quot;font-size: 13px;&quot;&gt;&lt;span style=&quot;font-size: 13px; letter-spacing: 0.16px; background-color: rgb(229, 229, 229);&quot;&gt;Subnet-1&lt;/span&gt;&lt;/font&gt;" style="shape=mxgraph.ibm.box;prType=subnet;fontStyle=0;verticalAlign=top;align=left;spacingLeft=32;spacingTop=4;fillColor=#E6F0E2;rounded=0;whiteSpace=wrap;html=1;strokeColor=#00882B;strokeWidth=1;dashed=0;container=1;spacing=-4;collapsible=0;expand=0;recursiveResize=0;fontSize=13;fontFamily=Helvetica;" parent="S_Ya5THD_kvHtzZO9yah-30" vertex="1">
                    <mxGeometry x="-310" y="282" width="160" height="159" as="geometry"/>
                </mxCell>
                <mxCell id="_pVd1xFBpg-qsmhu5DrP-0" value="Zone-2" style="shape=mxgraph.ibm.box;prType=zone;fontStyle=0;verticalAlign=top;align=left;spacingLeft=32;spacingTop=4;fillColor=#E0E0E0;rounded=0;whiteSpace=wrap;html=1;strokeColor=#919191;strokeWidth=1;dashed=0;container=0;spacing=-4;collapsible=0;expand=0;recursiveResize=0;fontSize=13;fontFamily=Helvetica;" parent="S_Ya5THD_kvHtzZO9yah-30" vertex="1">
                    <mxGeometry x="-322" y="-136" width="180" height="200" as="geometry"/>
                </mxCell>
                <mxCell id="S_Ya5THD_kvHtzZO9yah-32" value="&lt;font color=&quot;#161616&quot; style=&quot;font-size: 13px;&quot;&gt;&lt;span style=&quot;font-size: 13px; letter-spacing: 0.16px; background-color: rgb(229, 229, 229);&quot;&gt;Subnet-1&lt;/span&gt;&lt;/font&gt;" style="shape=mxgraph.ibm.box;prType=subnet;fontStyle=0;verticalAlign=top;align=left;spacingLeft=32;spacingTop=4;fillColor=#E6F0E2;rounded=0;whiteSpace=wrap;html=1;strokeColor=#00882B;strokeWidth=1;dashed=0;container=1;spacing=-4;collapsible=0;expand=0;recursiveResize=0;fontSize=13;fontFamily=Helvetica;" parent="S_Ya5THD_kvHtzZO9yah-30" vertex="1">
                    <mxGeometry x="-311" y="-107" width="160" height="159" as="geometry"/>
                </mxCell>
                <mxCell id="S_Ya5THD_kvHtzZO9yah-34" style="edgeStyle=orthogonalEdgeStyle;rounded=0;orthogonalLoop=1;jettySize=auto;html=1;exitX=1;exitY=0.5;exitDx=0;exitDy=0;entryX=0.5;entryY=0;entryDx=0;entryDy=0;fontSize=13;fontFamily=Helvetica;" parent="S_Ya5THD_kvHtzZO9yah-30" edge="1">
                    <mxGeometry relative="1" as="geometry">
                        <mxPoint x="-335" y="-236.5" as="sourcePoint"/>
                        <mxPoint x="-226" y="-52.5" as="targetPoint"/>
                    </mxGeometry>
                </mxCell>
                <mxCell id="S_Ya5THD_kvHtzZO9yah-37" value="&lt;font style=&quot;font-size: 13px;&quot;&gt;backend-2&lt;br style=&quot;font-size: 13px;&quot;&gt;&lt;/font&gt;" style="aspect=fixed;perimeter=ellipsePerimeter;html=1;align=center;shadow=0;dashed=0;fontColor=#4277BB;labelBackgroundColor=#ffffff;fontSize=13;spacingTop=3;image;image=img/lib/ibm/vpc/Instance.svg;fontFamily=Helvetica;" parent="S_Ya5THD_kvHtzZO9yah-30" vertex="1">
                    <mxGeometry x="-256" y="337.5" width="60" height="60" as="geometry"/>
                </mxCell>
                <mxCell id="S_Ya5THD_kvHtzZO9yah-38" style="edgeStyle=orthogonalEdgeStyle;rounded=0;orthogonalLoop=1;jettySize=auto;html=1;exitX=1;exitY=0.75;exitDx=0;exitDy=0;entryX=0.5;entryY=0;entryDx=0;entryDy=0;fontSize=13;fontFamily=Helvetica;" parent="S_Ya5THD_kvHtzZO9yah-30" edge="1">
                    <mxGeometry relative="1" as="geometry">
                        <mxPoint x="-347.1671842700023" y="169.91640786499875" as="sourcePoint"/>
                        <mxPoint x="-226" y="337.5" as="targetPoint"/>
                    </mxGeometry>
                </mxCell>
                <mxCell id="S_Ya5THD_kvHtzZO9yah-39" style="edgeStyle=orthogonalEdgeStyle;rounded=0;orthogonalLoop=1;jettySize=auto;html=1;exitX=0.5;exitY=1;exitDx=0;exitDy=0;entryX=1;entryY=0.25;entryDx=0;entryDy=0;fontSize=13;fontFamily=Helvetica;" parent="S_Ya5THD_kvHtzZO9yah-30" edge="1">
                    <mxGeometry relative="1" as="geometry">
                        <Array as="points">
                            <mxPoint x="-226" y="143"/>
                        </Array>
                        <mxPoint x="-226" y="7.5" as="sourcePoint"/>
                        <mxPoint x="-347.1671842700023" y="143.08359213500125" as="targetPoint"/>
                    </mxGeometry>
                </mxCell>
                <mxCell id="S_Ya5THD_kvHtzZO9yah-33" value="&lt;font style=&quot;font-size: 13px;&quot;&gt;frontend-2&lt;br style=&quot;font-size: 13px;&quot;&gt;&lt;/font&gt;" style="aspect=fixed;perimeter=ellipsePerimeter;html=1;align=center;shadow=0;dashed=0;fontColor=#4277BB;labelBackgroundColor=#ffffff;fontSize=13;spacingTop=3;image;image=img/lib/ibm/vpc/Instance.svg;fontFamily=Helvetica;" parent="S_Ya5THD_kvHtzZO9yah-30" vertex="1">
                    <mxGeometry x="-256" y="-52.5" width="60" height="60" as="geometry"/>
                </mxCell>
                <mxCell id="_pVd1xFBpg-qsmhu5DrP-6" value="Zone-2" style="shape=mxgraph.ibm.box;prType=zone;fontStyle=0;verticalAlign=top;align=left;spacingLeft=32;spacingTop=4;fillColor=#E0E0E0;rounded=0;whiteSpace=wrap;html=1;strokeColor=#919191;strokeWidth=1;dashed=0;container=0;spacing=-4;collapsible=0;expand=0;recursiveResize=0;fontSize=13;fontFamily=Helvetica;" parent="S_Ya5THD_kvHtzZO9yah-30" vertex="1">
                    <mxGeometry x="-322" y="-136" width="180" height="200" as="geometry"/>
                </mxCell>
                <mxCell id="_pVd1xFBpg-qsmhu5DrP-4" value="Zone-2" style="shape=mxgraph.ibm.box;prType=zone;fontStyle=0;verticalAlign=top;align=left;spacingLeft=32;spacingTop=4;fillColor=#E0E0E0;rounded=0;whiteSpace=wrap;html=1;strokeColor=#919191;strokeWidth=1;dashed=0;container=0;spacing=-4;collapsible=0;expand=0;recursiveResize=0;fontSize=13;fontFamily=Helvetica;" parent="S_Ya5THD_kvHtzZO9yah-30" vertex="1">
                    <mxGeometry x="-320" y="252" width="180" height="202" as="geometry"/>
                </mxCell>
                <mxCell id="_pVd1xFBpg-qsmhu5DrP-7" value="&lt;font color=&quot;#161616&quot; style=&quot;font-size: 13px;&quot;&gt;&lt;span style=&quot;letter-spacing: 0.16px; font-size: 13px;&quot;&gt;Subnet&lt;/span&gt;&lt;/font&gt;" style="shape=mxgraph.ibm.box;prType=subnet;fontStyle=0;verticalAlign=top;align=left;spacingLeft=32;spacingTop=4;fillColor=#E6F0E2;rounded=0;whiteSpace=wrap;html=1;strokeColor=#00882B;strokeWidth=1;dashed=0;container=1;spacing=-4;collapsible=0;expand=0;recursiveResize=0;fontSize=13;fontFamily=Helvetica;" parent="S_Ya5THD_kvHtzZO9yah-30" vertex="1">
                    <mxGeometry x="-311" y="-107" width="160" height="159" as="geometry"/>
                </mxCell>
                <mxCell id="_pVd1xFBpg-qsmhu5DrP-5" value="&lt;font color=&quot;#161616&quot; style=&quot;font-size: 13px;&quot;&gt;&lt;span style=&quot;font-size: 13px; letter-spacing: 0.16px; background-color: rgb(229, 229, 229);&quot;&gt;Subnet-1&lt;/span&gt;&lt;/font&gt;" style="shape=mxgraph.ibm.box;prType=subnet;fontStyle=0;verticalAlign=top;align=left;spacingLeft=32;spacingTop=4;fillColor=#E6F0E2;rounded=0;whiteSpace=wrap;html=1;strokeColor=#00882B;strokeWidth=1;dashed=0;container=1;spacing=-4;collapsible=0;expand=0;recursiveResize=0;fontSize=13;fontFamily=Helvetica;" parent="S_Ya5THD_kvHtzZO9yah-30" vertex="1">
                    <mxGeometry x="-310" y="282" width="160" height="159" as="geometry"/>
                </mxCell>
                <mxCell id="_pVd1xFBpg-qsmhu5DrP-9" value="&lt;font style=&quot;font-size: 13px;&quot;&gt;backend-2&lt;br style=&quot;font-size: 13px;&quot;&gt;&lt;/font&gt;" style="aspect=fixed;perimeter=ellipsePerimeter;html=1;align=center;shadow=0;dashed=0;fontColor=#4277BB;labelBackgroundColor=#ffffff;fontSize=13;spacingTop=3;image;image=img/lib/ibm/vpc/Instance.svg;fontFamily=Helvetica;" parent="S_Ya5THD_kvHtzZO9yah-30" vertex="1">
                    <mxGeometry x="-256" y="337.5" width="60" height="60" as="geometry"/>
                </mxCell>
                <mxCell id="_pVd1xFBpg-qsmhu5DrP-12" value="&lt;font style=&quot;font-size: 13px;&quot;&gt;frontend-2&lt;br style=&quot;font-size: 13px;&quot;&gt;&lt;/font&gt;" style="aspect=fixed;perimeter=ellipsePerimeter;html=1;align=center;shadow=0;dashed=0;fontColor=#4277BB;labelBackgroundColor=#ffffff;fontSize=13;spacingTop=3;image;image=img/lib/ibm/vpc/Instance.svg;fontFamily=Helvetica;" parent="S_Ya5THD_kvHtzZO9yah-30" vertex="1">
                    <mxGeometry x="-256" y="-52.5" width="60" height="60" as="geometry"/>
                </mxCell>
                <mxCell id="_pVd1xFBpg-qsmhu5DrP-8" style="edgeStyle=orthogonalEdgeStyle;rounded=0;orthogonalLoop=1;jettySize=auto;html=1;exitX=1;exitY=0.5;exitDx=0;exitDy=0;entryX=0.5;entryY=0;entryDx=0;entryDy=0;fontSize=13;fontFamily=Helvetica;" parent="S_Ya5THD_kvHtzZO9yah-30" edge="1">
                    <mxGeometry relative="1" as="geometry">
                        <mxPoint x="-335" y="-236.5" as="sourcePoint"/>
                        <mxPoint x="-226" y="-52.5" as="targetPoint"/>
                    </mxGeometry>
                </mxCell>
                <mxCell id="_pVd1xFBpg-qsmhu5DrP-11" style="edgeStyle=orthogonalEdgeStyle;rounded=0;orthogonalLoop=1;jettySize=auto;html=1;exitX=0.5;exitY=1;exitDx=0;exitDy=0;entryX=1;entryY=0.25;entryDx=0;entryDy=0;fontSize=13;fontFamily=Helvetica;" parent="S_Ya5THD_kvHtzZO9yah-30" edge="1">
                    <mxGeometry relative="1" as="geometry">
                        <Array as="points">
                            <mxPoint x="-226" y="143"/>
                        </Array>
                        <mxPoint x="-226" y="7.5" as="sourcePoint"/>
                        <mxPoint x="-347.1671842700023" y="143.08359213500125" as="targetPoint"/>
                    </mxGeometry>
                </mxCell>
                <mxCell id="_pVd1xFBpg-qsmhu5DrP-10" style="edgeStyle=orthogonalEdgeStyle;rounded=0;orthogonalLoop=1;jettySize=auto;html=1;exitX=1;exitY=0.75;exitDx=0;exitDy=0;entryX=0.5;entryY=0;entryDx=0;entryDy=0;fontSize=13;fontFamily=Helvetica;" parent="S_Ya5THD_kvHtzZO9yah-30" edge="1">
                    <mxGeometry relative="1" as="geometry">
                        <mxPoint x="-347.1671842700023" y="169.91640786499875" as="sourcePoint"/>
                        <mxPoint x="-226" y="337.5" as="targetPoint"/>
                    </mxGeometry>
                </mxCell>
                <mxCell id="SaUbRlYY-xDc7NYVYQWE-10" value="Zone-2" style="shape=mxgraph.ibm.box;prType=zone;fontStyle=0;verticalAlign=top;align=left;spacingLeft=32;spacingTop=4;fillColor=#E0E0E0;rounded=0;whiteSpace=wrap;html=1;strokeColor=#919191;strokeWidth=1;dashed=0;container=0;spacing=-4;collapsible=0;expand=0;recursiveResize=0;fontSize=13;fontFamily=Helvetica;" parent="S_Ya5THD_kvHtzZO9yah-30" vertex="1">
                    <mxGeometry x="-322" y="-136" width="180" height="200" as="geometry"/>
                </mxCell>
                <mxCell id="SaUbRlYY-xDc7NYVYQWE-11" value="Zone-2" style="shape=mxgraph.ibm.box;prType=zone;fontStyle=0;verticalAlign=top;align=left;spacingLeft=32;spacingTop=4;fillColor=#E0E0E0;rounded=0;whiteSpace=wrap;html=1;strokeColor=#919191;strokeWidth=1;dashed=0;container=0;spacing=-4;collapsible=0;expand=0;recursiveResize=0;fontSize=13;fontFamily=Helvetica;" parent="S_Ya5THD_kvHtzZO9yah-30" vertex="1">
                    <mxGeometry x="-320" y="252" width="180" height="202" as="geometry"/>
                </mxCell>
                <mxCell id="SaUbRlYY-xDc7NYVYQWE-3" value="Zone-2" style="shape=mxgraph.ibm.box;prType=zone;fontStyle=0;verticalAlign=top;align=left;spacingLeft=32;spacingTop=4;fillColor=#E0E0E0;rounded=0;whiteSpace=wrap;html=1;strokeColor=#919191;strokeWidth=1;dashed=0;container=0;spacing=-4;collapsible=0;expand=0;recursiveResize=0;fontSize=13;fontFamily=Helvetica;" parent="S_Ya5THD_kvHtzZO9yah-30" vertex="1">
                    <mxGeometry x="-322" y="-136" width="180" height="200" as="geometry"/>
                </mxCell>
                <mxCell id="SaUbRlYY-xDc7NYVYQWE-12" value="&lt;font color=&quot;#161616&quot; style=&quot;font-size: 13px;&quot;&gt;&lt;span style=&quot;letter-spacing: 0.16px; font-size: 13px;&quot;&gt;Subnet&lt;/span&gt;&lt;/font&gt;" style="shape=mxgraph.ibm.box;prType=subnet;fontStyle=0;verticalAlign=top;align=left;spacingLeft=32;spacingTop=4;fillColor=#E6F0E2;rounded=0;whiteSpace=wrap;html=1;strokeColor=#00882B;strokeWidth=1;dashed=0;container=1;spacing=-4;collapsible=0;expand=0;recursiveResize=0;fontSize=13;fontFamily=Helvetica;" parent="S_Ya5THD_kvHtzZO9yah-30" vertex="1">
                    <mxGeometry x="-311" y="-107" width="160" height="159" as="geometry"/>
                </mxCell>
                <mxCell id="SaUbRlYY-xDc7NYVYQWE-1" value="Zone-2" style="shape=mxgraph.ibm.box;prType=zone;fontStyle=0;verticalAlign=top;align=left;spacingLeft=32;spacingTop=4;fillColor=#E0E0E0;rounded=0;whiteSpace=wrap;html=1;strokeColor=#919191;strokeWidth=1;dashed=0;container=0;spacing=-4;collapsible=0;expand=0;recursiveResize=0;fontSize=13;fontFamily=Helvetica;" parent="S_Ya5THD_kvHtzZO9yah-30" vertex="1">
                    <mxGeometry x="-320" y="252" width="180" height="202" as="geometry"/>
                </mxCell>
                <mxCell id="SaUbRlYY-xDc7NYVYQWE-13" value="&lt;font color=&quot;#161616&quot; style=&quot;font-size: 13px;&quot;&gt;&lt;span style=&quot;font-size: 13px; letter-spacing: 0.16px; background-color: rgb(229, 229, 229);&quot;&gt;Subnet-1&lt;/span&gt;&lt;/font&gt;" style="shape=mxgraph.ibm.box;prType=subnet;fontStyle=0;verticalAlign=top;align=left;spacingLeft=32;spacingTop=4;fillColor=#E6F0E2;rounded=0;whiteSpace=wrap;html=1;strokeColor=#00882B;strokeWidth=1;dashed=0;container=1;spacing=-4;collapsible=0;expand=0;recursiveResize=0;fontSize=13;fontFamily=Helvetica;" parent="S_Ya5THD_kvHtzZO9yah-30" vertex="1">
                    <mxGeometry x="-310" y="282" width="160" height="159" as="geometry"/>
                </mxCell>
                <mxCell id="SaUbRlYY-xDc7NYVYQWE-4" value="&lt;font color=&quot;#161616&quot; data-font-src=&quot;https://fonts.googleapis.com/css?family=Poppins&quot; style=&quot;font-size: 13px;&quot;&gt;&lt;span style=&quot;letter-spacing: 0.16px; font-size: 13px;&quot;&gt;Subnet&lt;/span&gt;&lt;/font&gt;" style="shape=mxgraph.ibm.box;prType=subnet;fontStyle=0;verticalAlign=top;align=left;spacingLeft=32;spacingTop=4;fillColor=#E6F0E2;rounded=0;whiteSpace=wrap;html=1;strokeColor=#00882B;strokeWidth=1;dashed=0;container=1;spacing=-4;collapsible=0;expand=0;recursiveResize=0;fontSize=13;fontFamily=Helvetica;" parent="S_Ya5THD_kvHtzZO9yah-30" vertex="1">
                    <mxGeometry x="-311" y="-107" width="160" height="159" as="geometry"/>
                </mxCell>
                <mxCell id="SaUbRlYY-xDc7NYVYQWE-2" value="&lt;font color=&quot;#161616&quot; data-font-src=&quot;https://fonts.googleapis.com/css?family=Poppins&quot; style=&quot;font-size: 13px;&quot;&gt;&lt;span style=&quot;letter-spacing: 0.16px; font-size: 13px;&quot;&gt;Subnet&lt;/span&gt;&lt;/font&gt;" style="shape=mxgraph.ibm.box;prType=subnet;fontStyle=0;verticalAlign=top;align=left;spacingLeft=32;spacingTop=4;fillColor=#E6F0E2;rounded=0;whiteSpace=wrap;html=1;strokeColor=#00882B;strokeWidth=1;dashed=0;container=1;spacing=-4;collapsible=0;expand=0;recursiveResize=0;fontSize=13;fontFamily=Helvetica;" parent="S_Ya5THD_kvHtzZO9yah-30" vertex="1">
                    <mxGeometry x="-310" y="282" width="160" height="159" as="geometry"/>
                </mxCell>
                <mxCell id="SaUbRlYY-xDc7NYVYQWE-15" value="&lt;font style=&quot;font-size: 13px;&quot;&gt;frontend-2&lt;br style=&quot;font-size: 13px;&quot;&gt;&lt;/font&gt;" style="aspect=fixed;perimeter=ellipsePerimeter;html=1;align=center;shadow=0;dashed=0;fontColor=#4277BB;labelBackgroundColor=#ffffff;fontSize=13;spacingTop=3;image;image=img/lib/ibm/vpc/Instance.svg;fontFamily=Helvetica;" parent="S_Ya5THD_kvHtzZO9yah-30" vertex="1">
                    <mxGeometry x="-256" y="-52.5" width="60" height="60" as="geometry"/>
                </mxCell>
                <mxCell id="SaUbRlYY-xDc7NYVYQWE-14" value="&lt;font style=&quot;font-size: 13px;&quot;&gt;backend-2&lt;br style=&quot;font-size: 13px;&quot;&gt;&lt;/font&gt;" style="aspect=fixed;perimeter=ellipsePerimeter;html=1;align=center;shadow=0;dashed=0;fontColor=#4277BB;labelBackgroundColor=#ffffff;fontSize=13;spacingTop=3;image;image=img/lib/ibm/vpc/Instance.svg;fontFamily=Helvetica;" parent="S_Ya5THD_kvHtzZO9yah-30" vertex="1">
                    <mxGeometry x="-256" y="337.5" width="60" height="60" as="geometry"/>
                </mxCell>
                <mxCell id="SaUbRlYY-xDc7NYVYQWE-9" value="&lt;font style=&quot;font-size: 13px&quot;&gt;&lt;font data-font-src=&quot;https://fonts.googleapis.com/css?family=Poppins&quot; style=&quot;background-color: rgb(230 , 240 , 226)&quot;&gt;frontend-2&lt;/font&gt;&lt;br style=&quot;font-size: 13px&quot;&gt;&lt;/font&gt;" style="aspect=fixed;perimeter=ellipsePerimeter;html=1;align=center;shadow=0;dashed=0;labelBackgroundColor=#ffffff;fontSize=13;spacingTop=3;image;image=img/lib/ibm/vpc/Instance.svg;fontFamily=Helvetica;" parent="S_Ya5THD_kvHtzZO9yah-30" vertex="1">
                    <mxGeometry x="-256" y="-52.5" width="60" height="60" as="geometry"/>
                </mxCell>
                <mxCell id="SaUbRlYY-xDc7NYVYQWE-6" value="&lt;font style=&quot;font-size: 13px&quot;&gt;&lt;font data-font-src=&quot;https://fonts.googleapis.com/css?family=Poppins&quot; style=&quot;background-color: rgb(230 , 240 , 226)&quot;&gt;backend-2&lt;/font&gt;&lt;br style=&quot;font-size: 13px&quot;&gt;&lt;/font&gt;" style="aspect=fixed;perimeter=ellipsePerimeter;html=1;align=center;shadow=0;dashed=0;labelBackgroundColor=#ffffff;fontSize=13;spacingTop=3;image;image=img/lib/ibm/vpc/Instance.svg;fontFamily=Helvetica;" parent="S_Ya5THD_kvHtzZO9yah-30" vertex="1">
                    <mxGeometry x="-256" y="337.5" width="60" height="60" as="geometry"/>
                </mxCell>
                <mxCell id="SaUbRlYY-xDc7NYVYQWE-16" style="edgeStyle=orthogonalEdgeStyle;rounded=0;orthogonalLoop=1;jettySize=auto;html=1;exitX=1;exitY=0.5;exitDx=0;exitDy=0;entryX=0.5;entryY=0;entryDx=0;entryDy=0;fontSize=13;fontFamily=Helvetica;" parent="S_Ya5THD_kvHtzZO9yah-30" edge="1">
                    <mxGeometry relative="1" as="geometry">
                        <mxPoint x="-335" y="-236.5" as="sourcePoint"/>
                        <mxPoint x="-226" y="-52.5" as="targetPoint"/>
                    </mxGeometry>
                </mxCell>
                <mxCell id="SaUbRlYY-xDc7NYVYQWE-17" style="edgeStyle=orthogonalEdgeStyle;rounded=0;orthogonalLoop=1;jettySize=auto;html=1;exitX=0.5;exitY=1;exitDx=0;exitDy=0;entryX=1;entryY=0.25;entryDx=0;entryDy=0;fontSize=13;fontFamily=Helvetica;" parent="S_Ya5THD_kvHtzZO9yah-30" edge="1">
                    <mxGeometry relative="1" as="geometry">
                        <Array as="points">
                            <mxPoint x="-226" y="143"/>
                        </Array>
                        <mxPoint x="-226" y="7.5" as="sourcePoint"/>
                        <mxPoint x="-347.1671842700023" y="143.08359213500125" as="targetPoint"/>
                    </mxGeometry>
                </mxCell>
                <mxCell id="SaUbRlYY-xDc7NYVYQWE-18" style="edgeStyle=orthogonalEdgeStyle;rounded=0;orthogonalLoop=1;jettySize=auto;html=1;exitX=1;exitY=0.75;exitDx=0;exitDy=0;entryX=0.5;entryY=0;entryDx=0;entryDy=0;fontSize=13;fontFamily=Helvetica;" parent="S_Ya5THD_kvHtzZO9yah-30" edge="1">
                    <mxGeometry relative="1" as="geometry">
                        <mxPoint x="-347.1671842700023" y="169.91640786499875" as="sourcePoint"/>
                        <mxPoint x="-226" y="337.5" as="targetPoint"/>
                    </mxGeometry>
                </mxCell>
                <mxCell id="_pVd1xFBpg-qsmhu5DrP-3" value="sg" parent="S_Ya5THD_kvHtzZO9yah-0"/>
                <mxCell id="S_Ya5THD_kvHtzZO9yah-20" value="Security Group" style="fontStyle=0;verticalAlign=top;align=center;spacingTop=-2;fillColor=none;rounded=0;whiteSpace=wrap;html=1;strokeColor=#FF0000;strokeWidth=2;dashed=1;container=1;collapsible=0;expand=0;recursiveResize=0;fontFamily=Helvetica;fontSize=13;" parent="_pVd1xFBpg-qsmhu5DrP-3" vertex="1">
                    <mxGeometry x="-620" y="327" width="510" height="101" as="geometry"/>
                </mxCell>
                <mxCell id="S_Ya5THD_kvHtzZO9yah-15" value="Security Group" style="fontStyle=0;verticalAlign=top;align=center;spacingTop=-2;fillColor=none;rounded=0;whiteSpace=wrap;html=1;strokeColor=#FF0000;strokeWidth=2;dashed=1;container=0;collapsible=0;expand=0;recursiveResize=0;fontFamily=Helvetica;fontSize=13;" parent="_pVd1xFBpg-qsmhu5DrP-3" vertex="1">
                    <mxGeometry x="-620" y="-66" width="510" height="101" as="geometry"/>
                </mxCell>
                <mxCell id="_qT1PKvFCVoOHhqRDuHk-2" style="edgeStyle=orthogonalEdgeStyle;rounded=0;orthogonalLoop=1;jettySize=auto;html=1;exitX=0;exitY=0.5;exitDx=0;exitDy=0;entryX=1;entryY=0.354;entryDx=0;entryDy=0;entryPerimeter=0;fontFamily=Helvetica;fontColor=#000000;" parent="_pVd1xFBpg-qsmhu5DrP-3" source="S_Ya5THD_kvHtzZO9yah-42" target="S_Ya5THD_kvHtzZO9yah-4" edge="1">
                    <mxGeometry relative="1" as="geometry"/>
                </mxCell>
                <mxCell id="S_Ya5THD_kvHtzZO9yah-40" value="vpc-2" parent="S_Ya5THD_kvHtzZO9yah-0"/>
                <mxCell id="SaUbRlYY-xDc7NYVYQWE-26" value="VPC-DEDICATED" style="shape=mxgraph.ibm.box;prType=vpc;fontStyle=0;verticalAlign=top;align=left;spacingLeft=32;spacingTop=4;fillColor=none;rounded=0;whiteSpace=wrap;html=1;strokeColor=#4376BB;strokeWidth=2;dashed=0;container=1;spacing=-4;collapsible=0;expand=0;recursiveResize=0;fontFamily=Helvetica;fontSize=13;" parent="S_Ya5THD_kvHtzZO9yah-40" vertex="1">
                    <mxGeometry x="260" y="-310" width="514" height="790" as="geometry"/>
                </mxCell>
                <mxCell id="SaUbRlYY-xDc7NYVYQWE-28" value="Dedicated Host Group" style="fontStyle=0;verticalAlign=top;align=center;spacingTop=-2;fillColor=#e1d5e7;rounded=0;whiteSpace=wrap;html=1;strokeColor=#9673a6;strokeWidth=2;dashed=1;container=1;collapsible=0;expand=0;recursiveResize=0;fontFamily=Helvetica;fontSize=13;" parent="SaUbRlYY-xDc7NYVYQWE-26" vertex="1">
                    <mxGeometry x="199" y="170" width="275" height="450" as="geometry"/>
                </mxCell>
                <mxCell id="SaUbRlYY-xDc7NYVYQWE-29" value="Zone -1" style="shape=mxgraph.ibm.box;prType=zone;fontStyle=0;verticalAlign=top;align=left;spacingLeft=32;spacingTop=4;rounded=0;whiteSpace=wrap;html=1;strokeColor=#919191;strokeWidth=1;dashed=0;container=1;spacing=-4;collapsible=0;expand=0;recursiveResize=0;fontFamily=Helvetica;fontSize=13;fillColor=#E0E0E0;" parent="SaUbRlYY-xDc7NYVYQWE-28" vertex="1">
                    <mxGeometry x="13.5" y="29" width="248" height="381" as="geometry"/>
                </mxCell>
                <mxCell id="SaUbRlYY-xDc7NYVYQWE-30" value="Dedicated Host" style="fontStyle=0;verticalAlign=top;align=center;spacingTop=-2;fillColor=#ffe6cc;rounded=0;whiteSpace=wrap;html=1;strokeColor=#d79b00;strokeWidth=2;dashed=1;container=1;collapsible=0;expand=0;recursiveResize=0;fontFamily=Helvetica;fontSize=13;" parent="SaUbRlYY-xDc7NYVYQWE-29" vertex="1">
                    <mxGeometry x="17" y="33" width="204" height="207" as="geometry"/>
                </mxCell>
                <mxCell id="SaUbRlYY-xDc7NYVYQWE-31" value="&lt;font color=&quot;#161616&quot; style=&quot;font-size: 13px;&quot;&gt;&lt;span style=&quot;letter-spacing: 0.16px; background-color: rgb(229, 229, 229); font-size: 13px;&quot;&gt;Subnet&lt;/span&gt;&lt;/font&gt;" style="shape=mxgraph.ibm.box;prType=subnet;fontStyle=0;verticalAlign=top;align=left;spacingLeft=32;spacingTop=4;fillColor=#E6F0E2;rounded=0;whiteSpace=wrap;html=1;strokeColor=#00882B;strokeWidth=1;dashed=0;container=1;spacing=-4;collapsible=0;expand=0;recursiveResize=0;fontFamily=Helvetica;fontSize=13;" parent="SaUbRlYY-xDc7NYVYQWE-30" vertex="1">
                    <mxGeometry x="24.5" y="30" width="155" height="160" as="geometry"/>
                </mxCell>
                <mxCell id="SaUbRlYY-xDc7NYVYQWE-32" value="&lt;span style=&quot;background-color: rgb(224 , 224 , 224)&quot;&gt;&lt;font color=&quot;#000000&quot;&gt;Encrypted Data Volume&lt;/font&gt;&lt;/span&gt;" style="aspect=fixed;perimeter=ellipsePerimeter;html=1;align=center;shadow=0;dashed=0;fontColor=#4277BB;labelBackgroundColor=#ffffff;fontSize=13;spacingTop=3;image;image=img/lib/ibm/vpc/BlockStorage.svg;fontFamily=Helvetica;" parent="SaUbRlYY-xDc7NYVYQWE-29" vertex="1">
                    <mxGeometry x="140" y="271" width="60" height="60" as="geometry"/>
                </mxCell>
                <mxCell id="SaUbRlYY-xDc7NYVYQWE-33" value="Security Group" style="fontStyle=0;verticalAlign=top;align=center;spacingTop=-2;fillColor=none;rounded=0;whiteSpace=wrap;html=1;strokeColor=#FF0000;strokeWidth=2;dashed=1;container=1;collapsible=0;expand=0;recursiveResize=0;fontFamily=Helvetica;fontSize=13;" parent="SaUbRlYY-xDc7NYVYQWE-26" vertex="1">
                    <mxGeometry x="180" y="291" width="309" height="112" as="geometry"/>
                </mxCell>
                <mxCell id="SaUbRlYY-xDc7NYVYQWE-34" value="&lt;font style=&quot;font-size: 13px&quot;&gt;&lt;span style=&quot;background-color: rgb(230 , 240 , 226)&quot;&gt;&lt;font color=&quot;#000000&quot;&gt;VSI&lt;/font&gt;&lt;/span&gt;&lt;br style=&quot;font-size: 13px&quot;&gt;&lt;/font&gt;" style="aspect=fixed;perimeter=ellipsePerimeter;html=1;align=center;shadow=0;dashed=0;fontColor=#4277BB;labelBackgroundColor=#ffffff;fontSize=13;spacingTop=3;image;image=img/lib/ibm/vpc/Instance.svg;fontFamily=Helvetica;" parent="SaUbRlYY-xDc7NYVYQWE-33" vertex="1">
                    <mxGeometry x="120" y="26" width="60" height="60" as="geometry"/>
                </mxCell>
                <mxCell id="SaUbRlYY-xDc7NYVYQWE-35" style="edgeStyle=orthogonalEdgeStyle;rounded=0;orthogonalLoop=1;jettySize=auto;html=1;exitX=1;exitY=0.5;exitDx=0;exitDy=0;fontFamily=Helvetica;fontSize=13;" parent="SaUbRlYY-xDc7NYVYQWE-26" source="SaUbRlYY-xDc7NYVYQWE-34" target="SaUbRlYY-xDc7NYVYQWE-32" edge="1">
                    <mxGeometry relative="1" as="geometry"/>
                </mxCell>
                <UserObject link="https://cloud.ibm.com/catalog/services/is.endpoint-gateway" label="&lt;font color=&quot;#000000&quot;&gt;Virtual Private Endpoint&lt;/font&gt;" id="S_Ya5THD_kvHtzZO9yah-42">
                    <mxCell style="aspect=fixed;perimeter=ellipsePerimeter;html=1;align=center;shadow=0;dashed=0;fontColor=#4277BB;fontSize=13;spacingTop=3;image;image=data:image/svg+xml,PD94bWwgdmVyc2lvbj0iMS4wIiBlbmNvZGluZz0idXRmLTgiPz4KPCEtLSBHZW5lcmF0b3I6IEFkb2JlIElsbHVzdHJhdG9yIDI0LjAuMSwgU1ZHIEV4cG9ydCBQbHVnLUluIC4gU1ZHIFZlcnNpb246IDYuMDAgQnVpbGQgMCkgIC0tPgo8c3ZnIHZlcnNpb249IjEuMSIgaWQ9InZwY19lbmRwb2ludF9pY29uIiB4bWxucz0iaHR0cDovL3d3dy53My5vcmcvMjAwMC9zdmciIHhtbG5zOnhsaW5rPSJodHRwOi8vd3d3LnczLm9yZy8xOTk5L3hsaW5rIiB4PSIwcHgiCgkgeT0iMHB4IiB2aWV3Qm94PSIwIDAgMzIgMzIiIHN0eWxlPSJlbmFibGUtYmFja2dyb3VuZDpuZXcgMCAwIDMyIDMyOyIgeG1sOnNwYWNlPSJwcmVzZXJ2ZSI+CjxzdHlsZSB0eXBlPSJ0ZXh0L2NzcyI+Cgkuc3Qwe2ZpbGw6dXJsKCN2cGNfZ3JhZGllbnRfYm90dG9tXzFfKTt9Cgkuc3Qxe2ZpbGw6dXJsKCN2cGNfZ3JhZGllbnRfdG9wXzFfKTt9Cgkuc3Qye2ZpbGw6dXJsKCNlbmRwb2ludF9ncmFkaWVudF9yaWdodF8xXyk7fQoJLnN0M3tmaWxsOnVybCgjZW5kcG9pbnRfZ3JhZGllbnRfbGVmdF8xXyk7fQoJLnN0NHtmaWxsOiMwMzE5ODE7fQo8L3N0eWxlPgo8bGluZWFyR3JhZGllbnQgaWQ9InZwY19ncmFkaWVudF9ib3R0b21fMV8iIGdyYWRpZW50VW5pdHM9InVzZXJTcGFjZU9uVXNlIiB4MT0iMC4zNzA4IiB5MT0iMzEuNTI5MiIgeDI9IjMxLjUxMDYiIHkyPSIwLjM4OTQiPgoJPHN0b3AgIG9mZnNldD0iMC4xIiBzdHlsZT0ic3RvcC1jb2xvcjojODgzRkZBIi8+Cgk8c3RvcCAgb2Zmc2V0PSIwLjkiIHN0eWxlPSJzdG9wLWNvbG9yOiNFQzUzODgiLz4KPC9saW5lYXJHcmFkaWVudD4KPHBhdGggaWQ9InZwY19ncmFkaWVudF9ib3R0b20iIGNsYXNzPSJzdDAiIGQ9Ik0yMCwyN0g3Yy0xLjEsMC0yLTAuOS0yLTJWMTEuOGgyVjI1aDEzVjI3eiIvPgo8bGluZWFyR3JhZGllbnQgaWQ9InZwY19ncmFkaWVudF90b3BfMV8iIGdyYWRpZW50VW5pdHM9InVzZXJTcGFjZU9uVXNlIiB4MT0iMC42MzQ3IiB5MT0iMzEuODY1MyIgeDI9IjMxLjcyODIiIHkyPSIwLjc3MTgiPgoJPHN0b3AgIG9mZnNldD0iMC4xIiBzdHlsZT0ic3RvcC1jb2xvcjojODgzRkZBIi8+Cgk8c3RvcCAgb2Zmc2V0PSIwLjkiIHN0eWxlPSJzdG9wLWNvbG9yOiNFQzUzODgiLz4KPC9saW5lYXJHcmFkaWVudD4KPHBhdGggaWQ9InZwY19ncmFkaWVudF90b3AiIGNsYXNzPSJzdDEiIGQ9Ik0yNSwyMWgyVjdjMC0xLjEtMC45LTItMi0ySDEydjJoMTNWMjF6Ii8+CjxsaW5lYXJHcmFkaWVudCBpZD0iZW5kcG9pbnRfZ3JhZGllbnRfcmlnaHRfMV8iIGdyYWRpZW50VW5pdHM9InVzZXJTcGFjZU9uVXNlIiB4MT0iLTQ2NyIgeTE9Ii0zMDciIHgyPSItNDYxIiB5Mj0iLTMwNyIgZ3JhZGllbnRUcmFuc2Zvcm09Im1hdHJpeCg0LjQ4OTcwMGUtMTEgLTEgLTEgLTQuNDg5NzAwZS0xMSAtMjgxIC00NDYpIj4KCTxzdG9wICBvZmZzZXQ9IjAuMTAyNiIgc3R5bGU9InN0b3AtY29sb3I6I0ZGRkZGRiIvPgoJPHN0b3AgIG9mZnNldD0iMSIgc3R5bGU9InN0b3AtY29sb3I6I0ZGRkZGRjtzdG9wLW9wYWNpdHk6MCIvPgo8L2xpbmVhckdyYWRpZW50Pgo8cG9seWdvbiBpZD0iZW5kcG9pbnRfZ3JhZGllbnRfcmlnaHQiIGNsYXNzPSJzdDIiIHBvaW50cz0iMjgsMTUgMjgsMjEgMjQsMjEgMjQsMTUgIi8+CjxsaW5lYXJHcmFkaWVudCBpZD0iZW5kcG9pbnRfZ3JhZGllbnRfbGVmdF8xXyIgZ3JhZGllbnRVbml0cz0idXNlclNwYWNlT25Vc2UiIHgxPSItMzM5IiB5MT0iNTA0IiB4Mj0iLTMzMyIgeTI9IjUwNCIgZ3JhZGllbnRUcmFuc2Zvcm09Im1hdHJpeCgtNC40ODk3MDBlLTExIDEgMSA0LjQ4OTcwMGUtMTEgLTQ5OCAzNTApIj4KCTxzdG9wICBvZmZzZXQ9IjAuMTAyNiIgc3R5bGU9InN0b3AtY29sb3I6I0ZGRkZGRiIvPgoJPHN0b3AgIG9mZnNldD0iMC45OTk2IiBzdHlsZT0ic3RvcC1jb2xvcjojRkZGRkZGO3N0b3Atb3BhY2l0eTowIi8+CjwvbGluZWFyR3JhZGllbnQ+Cjxwb2x5Z29uIGlkPSJlbmRwb2ludF9ncmFkaWVudF9sZWZ0IiBjbGFzcz0ic3QzIiBwb2ludHM9IjQsMTcgNCwxMSA4LDExIDgsMTcgIi8+CjxwYXRoIGlkPSJlbmRwb2ludHMiIGNsYXNzPSJzdDQiIGQ9Ik0yOCwyMmgtNGgtMC42bC00LTRjMC40LTAuNiwwLjYtMS4zLDAuNi0yYzAtMi4yLTEuOC00LTQtNGMtMC43LDAtMS40LDAuMi0yLDAuNmwtNC00VjhWNFYySDgKCUg0SDJ2MnY0djJoMmg0aDAuNmw0LDRjLTAuNCwwLjYtMC42LDEuMy0wLjYsMmMwLDIuMiwxLjgsNCw0LDRjMC43LDAsMS40LTAuMiwyLTAuNmw0LDRWMjR2NHYyaDJoNGgydi0ydi00di0ySDI4eiBNOCw4SDRWNGg0Vjh6CgkgTTE2LDE4Yy0xLjEsMC0yLTAuOS0yLTJzMC45LTIsMi0yczIsMC45LDIsMlMxNy4xLDE4LDE2LDE4eiBNMjgsMjhoLTR2LTRoNFYyOHoiLz4KPC9zdmc+Cg==;strokeColor=#4277BB;strokeWidth=2;labelBackgroundColor=none;rounded=0;fontFamily=Helvetica;" parent="SaUbRlYY-xDc7NYVYQWE-26" vertex="1">
                        <mxGeometry x="50" y="250" width="60" height="60" as="geometry"/>
                    </mxCell>
                </UserObject>
                <mxCell id="CBfh4RTW94J9ulOomnI7-8" value="&lt;h3&gt;5&lt;/h3&gt;" style="ellipse;whiteSpace=wrap;html=1;aspect=fixed;strokeWidth=2;fontFamily=Helvetica;spacingBottom=4;spacingRight=2;labelBackgroundColor=none;" parent="SaUbRlYY-xDc7NYVYQWE-26" vertex="1">
                    <mxGeometry x="10" y="240" width="26" height="26" as="geometry"/>
                </mxCell>
                <mxCell id="HtNJtt0uTnjBc0L4M6rb-2" value="autoscale" parent="S_Ya5THD_kvHtzZO9yah-0"/>
                <UserObject link="https://cloud.ibm.com/catalog/services/is.instance-group" label="&lt;font color=&quot;#000000&quot; style=&quot;font-size: 13px;&quot;&gt;Auto Scale&amp;nbsp;&lt;br style=&quot;font-size: 13px;&quot;&gt;for VPC&lt;/font&gt;" id="o6-6GsE4s-l7I-eIB0E9-1">
                    <mxCell style="aspect=fixed;perimeter=ellipsePerimeter;html=1;align=center;shadow=0;dashed=0;fontColor=#4277BB;fontSize=13;spacingTop=3;image;image=data:image/png,iVBORw0KGgoAAAANSUhEUgAAAEAAAABACAYAAACqaXHeAAAACXBIWXMAAAsTAAALEwEAmpwYAAAUT0lEQVR4nO2beVjU17nHP+c3A8PMyI4oiAZwX9C4GwFxN3va3JjGtolLlnvT1DYmioOmzfSJkUXNTdrbJtHYJE1iEzVpniwu1ahRMBpRJCIqiIArILLNwDDM/H7n/oFQkAEXpL33uff7PPzBOe/7nt97OOc97/s9B/h//N+GuB1GEhMTIxRFCVNUxQWgKqrLaDTmW63WhtthvyvRqQmwWq0+9XX1nwH3eLB8HsGPUlJSDndmjK6GvjPKjlrH00KIe0JCQggJCWlub2ho4MyZMxFCireAsZ39yK5EpyZACHEPwMP/9jBR0VGt+lKTU6mqqhqzePFi8+rVq2s7M05X4roTkJSYNF8iX0JgEIj3DUbDy1arVbVYLFPQmAoQHBzcRs/b4A2ATuieslqtb1ut1npLouVnQCIQAqwvKCz43aZNm9Tb6dDNosMYYEm0LAHSFEVBCIGqNn9rMXAHwKDBg3hi7hMI0drU0aNH+eSvnzT9ehnYBfwEQFEUqWmaAD4oKCyY/6+cBF17HU3O63Q6OW/BPDF5ymQKThdQW1sLEBAREcGMmTOYMXMGOl1bMz179qRfv37U1dVRfrncDAxTFIXH5z7OtOnTRM6xHBoaGkYEBQZFhYWHfZGbmyu7zMsO4HEFWJZY5iF4V6fTybnz5or+A/oD4HQ62Z+xnwEDB9CrV68bHqSyspKy0jIiIyMx+BgAuHz5MuveXofNZgNYm5KW8u+d9uYW4HkCEi2nhBAD5j85n/79+3fZ4JcvX+btN9+WtbW1UuhEaHJy8pUuG6wdKO20+wghCAgI6NLB/fz8MBgMAlCEEN5dOlg78DgBUsr1mqbx0Ycf0dDQdcncxk82UlFRAZJdK1euvNRlA3UAj8eg0Wxc6axzPlBaUjrmyOEjTLhrQrsGSi6VcPToUS6XXSY3N5cxY8cwcuRIoqKj2pwMLVFTXUPu8VyAcy7N9ZPOOnKr8DgBVqvVbVliuYSgOWhdC4fDwWeffkbOsZxW7ZmHMsk8lMnw4cN56McPYTKZPOobDM12/Xx9fetu2YNOwuMELH9x+R2qUO83m83ExMS06a+prmH9+vWUlZYRGhpKbFwsvn6+mM1mSi6VkJmZyQ8//EBRURG/+OUv8Pf3b2PD4GNgWMwwco7l+NfX1j8G/Pm2e3cDaF6jzzzzjFdwYPAiKeXjQojuUsoekxImcc+9rescKSXvv/s+p06dYsSdI5j96Ow2eYCmaezetZudO3bSf0B/5i+Y73E7FJwu4J117wA4gWoERyXyhdTU1ONd4awnNAfBoICg96WUqcAwoEf//v2ZMnVKG4XT+ac5deoUISEhHp0HUBSFqdOmMmDgAPLz8sk6kuVx8L79+nL/A/fj6+trEEKEIpmpoOywWq2e900XQA+QlJTUXapyDsCSpUvw9/f36BjAqVOnAEiYnNCuDIAQgmnTppF3Ko/DmYcZNXqUR7nYuFhi42JRVZUNH24gNzc3zOFwjAH2dsqzG4QewO1263RCR69evQgKCupQ4eLFiwD07dv3usbDwsNQFIWSkpLryup0uuYCSqj/vJygvUSoXeh1jXHTy9vr+rJ6PV5eXqha19U6ixYtMtIJYuem+YBuvt0AKCsro1u3bh3K2u12nE4nvXv3vrWv84Bli5cN0xTtv4BIoDtgsiRaLmpo89LS0nbcrD0FQK/XqwAXLlzA7XZ3qDB06FAAvtv/HVJ2XMB9f/B7AJqKqfagaRpXrlyhqqqq8XdFs3uSs1qtPpqibQUSgDsMPgZTYFAgOp0uTCA2Wq1Wnw4H8gA9QHJy8mVLomULcO/Lv3kZX19foqOjeeChBzAaja0UBg4aSEBgADnHcjh44GC7WWJhYSF7du/By8uLibET23V829ZtZKRnoGlaU3OeyWQ64km+obZhCIKIqKgoFjy1AL2+cQH/dcNfxQ/ZPwTU19XPs1qta+vq6sIF4g2BuAvY69bcv1q9enWZJ5vNYXz6qOlfub3cgVLKvk6n01hSUkJlRSUxw1snQoqi0Kd3H44cPsLJEyex2+z07NkTH2Pj5NtsNvZ+u5fP//Y5brebRx97tN0tkJ2dzZavtzStpBwhxCeqVJ9cuXJl9bIly+6MjYtdHjsxdvSEuybkzho/y9uld70CDB8WM4xBgwY12/Hy8iL7aDbA/W6X+1mB+KVAjFIUxVdKOUwndA9PjJ24PSMjo0216TF4WJ+3BtQb6osUofgvtSzFz9+vjUx+fj4bP96I3d64WgMCAxBCUFlR2fxRDzz4AGPHtc+JvvWntyguLkZIcV/yquQtTe3LEpdN09C2c/UPJISok1IKwBgaGsqCpxa0yS4LzxSyY8cOigqLUBSFcePGMW3GNDZv3MzJkycB0NCGpKWlnWip5/Eg33NgT338xPgIiRzn4+NDdHR0G5ng4GBGjxmN2Wymrq4OW42NWnst3bt3J2Z4DHN+NqfDo7K0tJTt27YjEAUGs+HXe/bskQBJSUmDkPwdMM2cNZMePXtw6eIlL7PZ7DVq1Cjm/GwOZrO5jb3AwEBGjxlNwuQEJk+ZzOAhg/H29mb4iOE4nU7OnT0H0CMjI2NTS732iiHFWefsB7Tcm21gNpuZlDCJSQmTgMY0uaMKsCXq6+sbdYTs7nQ6A4ErgJCq/BwImBg7sTkTve/++xBC3JDtprjQBEVRGDx4MBnpGQhEm5nzmAc4Hc4XJHJWcHAw8ZPib8gh4IadB+jTpw9Dhw0FiZ9U5YcAFoslChgYHh7Offff18qJm7F9LfbuvZpUaqy7tq89QmSuEILHn3gcH5+bPlluCEIIZs+eTUBgAMDdSUlJwW63uxRwlpaWyvPnzneoL6XkypUrnD17lvLy8g6P5OqqagBVU7Sd1/Z5nACBqG8aoCths9twNbgANIPDoK5evbpWCvlrVVXFtq3bPOpIKck6kkVKcgqr01bz5h/fZM2qNaxZtYbvvvOcm/gH+APoFKG8svyF5b1pEfw9BsH4ifGXEPz0eM5xwsLD6N69OwC1tbXs/XYvRUVFBAUF3dDq0DSN7KPZnDhxgpCQkGYipLy8nHVr12G32QHWrVizYjPAjBkzstwu9y/dbrepKba0xNYtW9m6ZWtjhtmnNwMGDKBbt25cvHiRkydOUlZWxrCYYa22THRUNFlZWbgaXBOkIhfFx8U/Hj8p/u/p6enlHicgfX96XmxcbLnU5L05x3KIiIig3lnPO2vf4UTuCc4UnGH//v2cP3+efv364e3dtnZp4gQ2b95M5qFMCgoKOHjgIOHh4QghWLd2HTXVNQgpNviYfZ7es2ePBjB+/Pj7BeLJ0NBQxo0f18pmdnY2W77agp+/HwueXMD0GdMZMmQII0eNJCYmhvy8fIqKijAajfTp06dZz8fHh5iYGFRVRVVVbDZboJRycEZGxl86vhlaYlmE4LWWbQKxXUM7DixQhOIXFR2lPP3M0210t3y9hX179zUp/V1KWSwQTwshUBQFVVURUmwwmA1zrVarOykx6UfAaonsC/DcwueIiIhotiel5PXXXqesrIyFv1pIeK/wNmOWlZXxhzf+gMlswpJkaTdwvvrKq9jtdrePycfYYTWYsirlP6WQc4BjQI6U8vnktOR7UtNSXzSajL2klI5zZ8953HeHMw8DuIVODExJTZmVmpb6DJL5UpMnVVUtEUKsaHY+Kak7gk8Q9A0LD+PRxx5t5TxAdXU1ZWVl9Lmjj0fnAUJDQxk4aCA11TVcutQ+yXyV7tc7HI7w61aDqampHwMfX9tutVrrLEstVS6Xy+xwOFqRn3V1ddTV1QEUJCcn5zW1p6xKeQ9471pbmqaNElJ433nnnfxkjmeCuCkgB/h3fFfRxGfU2tu/kG7KQRRV6dWp63EkW4Gn3n/vffz8GtNlKSWVlZVXu2X6jZhRVKVGKrLDO4imCa6qrurQVvnlcqAV69yMixcucuDAgca7CHBIvTzZqQnQ0F5WUGLPFp8d7KH7gE6vW35Dhry4ggr2Wo9VMAA9evTAbDZz/tx5Ll68SHh4221QXl5OXl4eBoOBXhGt7y7z8vJ4d/27QHNt8WxqSmpl+6TeDSAjI8MWFh72VmBQ4GZFKh9pQlsnkev1qn5F8urk1/bt29e+Ry0QFhZWFRQU9Otae62PpmlUVFQQHBLcKq0VQmA2mzl+/DgFpwuIjo5uJmcAqqqq+OD9D7DZbMy6exaRUZGtxtjw4QZsNhtSyl/5mHzmvLry1Uy4TY+kPGHhwoUGs9G8HEk8glqgRpHK6pWrVnqs9ZMSk56UyLVcTc6Cg4N59rlnWxU+Uko++vAjjuccR6fTERkZSXBIMDXVNeTn56OqKiNGjODRxx5FUf4R32tra3n1lVeRUpYVFBaEt3yP0KkV0BGmTp76EvAygkhgABAjhfx5wviED/Z9t6/mWvn0jPSsibETP1FQMhGojjrHEFuNrbFeuAohBDHDY/D39+fMmTNcLrvMhQsXKC8vp1u3bsy6exZ333t3K+cBHHUO0velAxgCgwI/z8jIKG3q61wQvIqkpKRgqcrdAvGOwWT4E+DjdDifk1Ly3MLn0Ck6Dh8+TEZ6hlnVq88BFovFEonKWHQcTklJOQOQlpZ2Cji1bNmybZpbe7i0rLTNChVCMHbcWEaOGsn58+eptdcSFBRE99DubSrBJvgH+DMpYRJ7v92rR/IeMLKp76ZZ4WuRmJgYIVWZCcRI5Bv1dfUFToezUkrZfey4sURERBAWHsboMaObVJYuTVy6C42TCDaiUWBZYpnT0qZ0y7sA0c3cPumq1+uJjIxk6LChhIWHtet8E2bdPauRtEEMt1qtzX53agKWL1reS0HZDUS2eCjVB9DHT4rnwYcebJYNCwtj7ry5+Pr6IhBT9Hq9YdDgQY3ZmuCDq5kgABK5GBovTW4Xdn2zi6rKKhCctFqtzSRHp7aA6q2+iKTfgAEDeGLeE+h0Oux2O2az2WMaOmjwIJKWJ2Gz2TCZTOj1ejIPZfLp5k91GtprwOdXRQPA81l+PdLFbrezfdt2Lly4gJ+fH5MSJlFTU8M3O79BCFGnof20pXzn3glqwlsKycBBA5uvya53VyCEaE6aAIYMHcLXX30t6+vrw2fPnq3btGmTKoR4Q0q5dt3adTwy+xFG3DmCjPQM9n67F5vNRmhoKHN+OoeeYT1b2S4vL+fP6/8sKysqBcCli5c4dfLUPwQkc1LTUrNb6nTqFJgUO6lECvnvrgZXyz3eOJaUnM4/zdGso5zIPYHD4SAoKKjNfeLeb/eSl5cngE/Wrlv7KUB6RvqRuNi4Oinl9OM5x0XOsRyysrJoaGhwAFdqa2u7ZWdly1GjRomW7xe+/OJLigqLBLDWpbru1gldJoIIgSiVQv4iJS3li2t96FwmqNMq0JAul6vVmqyqrGLTxk2cOXOmlXxAYACPzH6kFVl64fwFAIQQFS1lU9JSVlmWWI6h8GZpaWmkEOKk0MSc/KL8Y32j+qbWO+tf/P7775k+Y3qzTlMKruiV365JW1MObLr60y5uKRFKTEwM10ndKinkTCAkLj6umcPTNI03//gm58+fJyIigvETxuNt8Cb3eC7ZR7Px9vZm0QuLmqgwSktL+f3rv0dKeVmT2kfGBuPvrK9bWyb8IikpKSg5ObkCkABLly4dKqTI8ff3Z8SdI7DV2KipqaGwsFBKKcsNRkPPloGuI9zSFoiPi/8MeMjb4G0cN36caGJtAY4cPsKBAweIiorimf94hoiICHr06NHM0uTn52O32xkWMwxojBmKonCm4IwZmODWue+ZPmP62iaaHCA9Pd3RcvyMjIzLcXFx0c5654ji4mJKSkqorKxESlmKxs9XrFxRcKO+3PQxuHDhQgOS6X5+fvI3v/2NePChB1tlXoWFhQBMmTalzX6fPGUyOp2OwjOFrdqnTJ3CS799qenF+QhXjeu6rzBTUlPmSSFjkcxHMksKOaygsCAiZXVKG+KzI9x0DDAajd4A3t7ewlPyYauxAeDbzbdNn06nw2g0YrfbUVW11QSZTCaMpsZ7SJfedSPPZmVqaup+YP/N+tASN70CTCZTLVBtt9nlidwTOOudrfojejcyOWfPnm2jW1FRgd1up1dEr1bOq6pKcXExNTU1EsDUYLqhKvJ24KZjwJ49e2TsxFi9qqpTs7OzycrKYuSokc3EqJ+fH4e+P0RxUTHRfaObz3ybzcbHGz6murqaGTNmNNNaLpeLt/70Frt37cZZ7xRIvlzx2op3b6OPHeKWgmDG/ox9cXfFZSMwOp3OgVeuXGH4iOFA43WZyWzi2A/HyDyUyfGc4xw5coTt27ZTUVFBzPAYZs6a2Rw0d+7YybEfjoHkkFDE606XM/HAgQMdP1K4jegUH3D1cVVpSEiIeHHJi636Tuef5qsvv6K0tLHy9PPzI2FyAndNvKtVKvuX9/7CiRMnEDoxsCV/+M9CpxIhqcoXAXEt+wLQr38/nn/heerq6mhoaMDf399jDt/0IFuq8sdAame+51bQ2XJ4JsDUaVPbFTCZTAQEBLRbwMTGN1d8P+/kt9wSOjUBEnkU4IvPv8DtdnPu3Dl279rNge8O4HK52spLSVZWFgcPHqTeUY+maezcsbPJ1j99+cPtiQFHgfDAoMDm1yEAvfv0Zt78ef+gsyur2PDRBs6dOweAt8FbhoeHi6LCIoQQl3AzPXlNcm5nvudW0KlqMD09vS5hQsKnUpHx9Y76cAQXpJCJAiFqqmsG+Pj4EBXV+O90n332Gfn5+UjkNwLxN1VVx1VVVSkCUSAVOSVlVcr/vhXQEosXLw4tLi6+smnTJjVpcdJdUpH7e/bsyZixYwDYvm27dLlcDT4mHz+r1dpgXWj1q/Wp7V5UVFT0r/yvsS6hxa1Wq1LvqN+KbAySLbAqJS0lsSvGvFV02b2A1Wr1djgcjygo4VJKo5AiK3lV8tdcLWn/p+C/AYHOTDX+5RS3AAAAAElFTkSuQmCC;strokeColor=#4277BB;strokeWidth=2;labelBackgroundColor=none;rounded=0;sketch=0;fontFamily=Helvetica;gradientColor=none;labelPosition=center;verticalLabelPosition=top;verticalAlign=bottom;" parent="HtNJtt0uTnjBc0L4M6rb-2" vertex="1">
                        <mxGeometry x="-608" y="-200" width="50" height="50" as="geometry"/>
                    </mxCell>
                </UserObject>
                <UserObject link="https://cloud.ibm.com/catalog/services/is.instance-group" label="&lt;font color=&quot;#000000&quot; style=&quot;font-size: 13px;&quot;&gt;Auto Scale&amp;nbsp;&lt;br style=&quot;font-size: 13px;&quot;&gt;for VPC&lt;/font&gt;" id="o6-6GsE4s-l7I-eIB0E9-2">
                    <mxCell style="aspect=fixed;perimeter=ellipsePerimeter;html=1;align=center;shadow=0;dashed=0;fontColor=#4277BB;fontSize=13;spacingTop=3;image;image=data:image/png,iVBORw0KGgoAAAANSUhEUgAAAEAAAABACAYAAACqaXHeAAAACXBIWXMAAAsTAAALEwEAmpwYAAAUT0lEQVR4nO2beVjU17nHP+c3A8PMyI4oiAZwX9C4GwFxN3va3JjGtolLlnvT1DYmioOmzfSJkUXNTdrbJtHYJE1iEzVpniwu1ahRMBpRJCIqiIArILLNwDDM/H7n/oFQkAEXpL33uff7PPzBOe/7nt97OOc97/s9B/h//N+GuB1GEhMTIxRFCVNUxQWgKqrLaDTmW63WhtthvyvRqQmwWq0+9XX1nwH3eLB8HsGPUlJSDndmjK6GvjPKjlrH00KIe0JCQggJCWlub2ho4MyZMxFCireAsZ39yK5EpyZACHEPwMP/9jBR0VGt+lKTU6mqqhqzePFi8+rVq2s7M05X4roTkJSYNF8iX0JgEIj3DUbDy1arVbVYLFPQmAoQHBzcRs/b4A2ATuieslqtb1ut1npLouVnQCIQAqwvKCz43aZNm9Tb6dDNosMYYEm0LAHSFEVBCIGqNn9rMXAHwKDBg3hi7hMI0drU0aNH+eSvnzT9ehnYBfwEQFEUqWmaAD4oKCyY/6+cBF17HU3O63Q6OW/BPDF5ymQKThdQW1sLEBAREcGMmTOYMXMGOl1bMz179qRfv37U1dVRfrncDAxTFIXH5z7OtOnTRM6xHBoaGkYEBQZFhYWHfZGbmyu7zMsO4HEFWJZY5iF4V6fTybnz5or+A/oD4HQ62Z+xnwEDB9CrV68bHqSyspKy0jIiIyMx+BgAuHz5MuveXofNZgNYm5KW8u+d9uYW4HkCEi2nhBAD5j85n/79+3fZ4JcvX+btN9+WtbW1UuhEaHJy8pUuG6wdKO20+wghCAgI6NLB/fz8MBgMAlCEEN5dOlg78DgBUsr1mqbx0Ycf0dDQdcncxk82UlFRAZJdK1euvNRlA3UAj8eg0Wxc6axzPlBaUjrmyOEjTLhrQrsGSi6VcPToUS6XXSY3N5cxY8cwcuRIoqKj2pwMLVFTXUPu8VyAcy7N9ZPOOnKr8DgBVqvVbVliuYSgOWhdC4fDwWeffkbOsZxW7ZmHMsk8lMnw4cN56McPYTKZPOobDM12/Xx9fetu2YNOwuMELH9x+R2qUO83m83ExMS06a+prmH9+vWUlZYRGhpKbFwsvn6+mM1mSi6VkJmZyQ8//EBRURG/+OUv8Pf3b2PD4GNgWMwwco7l+NfX1j8G/Pm2e3cDaF6jzzzzjFdwYPAiKeXjQojuUsoekxImcc+9rescKSXvv/s+p06dYsSdI5j96Ow2eYCmaezetZudO3bSf0B/5i+Y73E7FJwu4J117wA4gWoERyXyhdTU1ONd4awnNAfBoICg96WUqcAwoEf//v2ZMnVKG4XT+ac5deoUISEhHp0HUBSFqdOmMmDgAPLz8sk6kuVx8L79+nL/A/fj6+trEEKEIpmpoOywWq2e900XQA+QlJTUXapyDsCSpUvw9/f36BjAqVOnAEiYnNCuDIAQgmnTppF3Ko/DmYcZNXqUR7nYuFhi42JRVZUNH24gNzc3zOFwjAH2dsqzG4QewO1263RCR69evQgKCupQ4eLFiwD07dv3usbDwsNQFIWSkpLryup0uuYCSqj/vJygvUSoXeh1jXHTy9vr+rJ6PV5eXqha19U6ixYtMtIJYuem+YBuvt0AKCsro1u3bh3K2u12nE4nvXv3vrWv84Bli5cN0xTtv4BIoDtgsiRaLmpo89LS0nbcrD0FQK/XqwAXLlzA7XZ3qDB06FAAvtv/HVJ2XMB9f/B7AJqKqfagaRpXrlyhqqqq8XdFs3uSs1qtPpqibQUSgDsMPgZTYFAgOp0uTCA2Wq1Wnw4H8gA9QHJy8mVLomULcO/Lv3kZX19foqOjeeChBzAaja0UBg4aSEBgADnHcjh44GC7WWJhYSF7du/By8uLibET23V829ZtZKRnoGlaU3OeyWQ64km+obZhCIKIqKgoFjy1AL2+cQH/dcNfxQ/ZPwTU19XPs1qta+vq6sIF4g2BuAvY69bcv1q9enWZJ5vNYXz6qOlfub3cgVLKvk6n01hSUkJlRSUxw1snQoqi0Kd3H44cPsLJEyex2+z07NkTH2Pj5NtsNvZ+u5fP//Y5brebRx97tN0tkJ2dzZavtzStpBwhxCeqVJ9cuXJl9bIly+6MjYtdHjsxdvSEuybkzho/y9uld70CDB8WM4xBgwY12/Hy8iL7aDbA/W6X+1mB+KVAjFIUxVdKOUwndA9PjJ24PSMjo0216TF4WJ+3BtQb6osUofgvtSzFz9+vjUx+fj4bP96I3d64WgMCAxBCUFlR2fxRDzz4AGPHtc+JvvWntyguLkZIcV/yquQtTe3LEpdN09C2c/UPJISok1IKwBgaGsqCpxa0yS4LzxSyY8cOigqLUBSFcePGMW3GNDZv3MzJkycB0NCGpKWlnWip5/Eg33NgT338xPgIiRzn4+NDdHR0G5ng4GBGjxmN2Wymrq4OW42NWnst3bt3J2Z4DHN+NqfDo7K0tJTt27YjEAUGs+HXe/bskQBJSUmDkPwdMM2cNZMePXtw6eIlL7PZ7DVq1Cjm/GwOZrO5jb3AwEBGjxlNwuQEJk+ZzOAhg/H29mb4iOE4nU7OnT0H0CMjI2NTS732iiHFWefsB7Tcm21gNpuZlDCJSQmTgMY0uaMKsCXq6+sbdYTs7nQ6A4ErgJCq/BwImBg7sTkTve/++xBC3JDtprjQBEVRGDx4MBnpGQhEm5nzmAc4Hc4XJHJWcHAw8ZPib8gh4IadB+jTpw9Dhw0FiZ9U5YcAFoslChgYHh7Offff18qJm7F9LfbuvZpUaqy7tq89QmSuEILHn3gcH5+bPlluCEIIZs+eTUBgAMDdSUlJwW63uxRwlpaWyvPnzneoL6XkypUrnD17lvLy8g6P5OqqagBVU7Sd1/Z5nACBqG8aoCths9twNbgANIPDoK5evbpWCvlrVVXFtq3bPOpIKck6kkVKcgqr01bz5h/fZM2qNaxZtYbvvvOcm/gH+APoFKG8svyF5b1pEfw9BsH4ifGXEPz0eM5xwsLD6N69OwC1tbXs/XYvRUVFBAUF3dDq0DSN7KPZnDhxgpCQkGYipLy8nHVr12G32QHWrVizYjPAjBkzstwu9y/dbrepKba0xNYtW9m6ZWtjhtmnNwMGDKBbt25cvHiRkydOUlZWxrCYYa22THRUNFlZWbgaXBOkIhfFx8U/Hj8p/u/p6enlHicgfX96XmxcbLnU5L05x3KIiIig3lnPO2vf4UTuCc4UnGH//v2cP3+efv364e3dtnZp4gQ2b95M5qFMCgoKOHjgIOHh4QghWLd2HTXVNQgpNviYfZ7es2ePBjB+/Pj7BeLJ0NBQxo0f18pmdnY2W77agp+/HwueXMD0GdMZMmQII0eNJCYmhvy8fIqKijAajfTp06dZz8fHh5iYGFRVRVVVbDZboJRycEZGxl86vhlaYlmE4LWWbQKxXUM7DixQhOIXFR2lPP3M0210t3y9hX179zUp/V1KWSwQTwshUBQFVVURUmwwmA1zrVarOykx6UfAaonsC/DcwueIiIhotiel5PXXXqesrIyFv1pIeK/wNmOWlZXxhzf+gMlswpJkaTdwvvrKq9jtdrePycfYYTWYsirlP6WQc4BjQI6U8vnktOR7UtNSXzSajL2klI5zZ8953HeHMw8DuIVODExJTZmVmpb6DJL5UpMnVVUtEUKsaHY+Kak7gk8Q9A0LD+PRxx5t5TxAdXU1ZWVl9Lmjj0fnAUJDQxk4aCA11TVcutQ+yXyV7tc7HI7w61aDqampHwMfX9tutVrrLEstVS6Xy+xwOFqRn3V1ddTV1QEUJCcn5zW1p6xKeQ9471pbmqaNElJ433nnnfxkjmeCuCkgB/h3fFfRxGfU2tu/kG7KQRRV6dWp63EkW4Gn3n/vffz8GtNlKSWVlZVXu2X6jZhRVKVGKrLDO4imCa6qrurQVvnlcqAV69yMixcucuDAgca7CHBIvTzZqQnQ0F5WUGLPFp8d7KH7gE6vW35Dhry4ggr2Wo9VMAA9evTAbDZz/tx5Ll68SHh4221QXl5OXl4eBoOBXhGt7y7z8vJ4d/27QHNt8WxqSmpl+6TeDSAjI8MWFh72VmBQ4GZFKh9pQlsnkev1qn5F8urk1/bt29e+Ry0QFhZWFRQU9Otae62PpmlUVFQQHBLcKq0VQmA2mzl+/DgFpwuIjo5uJmcAqqqq+OD9D7DZbMy6exaRUZGtxtjw4QZsNhtSyl/5mHzmvLry1Uy4TY+kPGHhwoUGs9G8HEk8glqgRpHK6pWrVnqs9ZMSk56UyLVcTc6Cg4N59rlnWxU+Uko++vAjjuccR6fTERkZSXBIMDXVNeTn56OqKiNGjODRxx5FUf4R32tra3n1lVeRUpYVFBaEt3yP0KkV0BGmTp76EvAygkhgABAjhfx5wviED/Z9t6/mWvn0jPSsibETP1FQMhGojjrHEFuNrbFeuAohBDHDY/D39+fMmTNcLrvMhQsXKC8vp1u3bsy6exZ333t3K+cBHHUO0velAxgCgwI/z8jIKG3q61wQvIqkpKRgqcrdAvGOwWT4E+DjdDifk1Ly3MLn0Ck6Dh8+TEZ6hlnVq88BFovFEonKWHQcTklJOQOQlpZ2Cji1bNmybZpbe7i0rLTNChVCMHbcWEaOGsn58+eptdcSFBRE99DubSrBJvgH+DMpYRJ7v92rR/IeMLKp76ZZ4WuRmJgYIVWZCcRI5Bv1dfUFToezUkrZfey4sURERBAWHsboMaObVJYuTVy6C42TCDaiUWBZYpnT0qZ0y7sA0c3cPumq1+uJjIxk6LChhIWHtet8E2bdPauRtEEMt1qtzX53agKWL1reS0HZDUS2eCjVB9DHT4rnwYcebJYNCwtj7ry5+Pr6IhBT9Hq9YdDgQY3ZmuCDq5kgABK5GBovTW4Xdn2zi6rKKhCctFqtzSRHp7aA6q2+iKTfgAEDeGLeE+h0Oux2O2az2WMaOmjwIJKWJ2Gz2TCZTOj1ejIPZfLp5k91GtprwOdXRQPA81l+PdLFbrezfdt2Lly4gJ+fH5MSJlFTU8M3O79BCFGnof20pXzn3glqwlsKycBBA5uvya53VyCEaE6aAIYMHcLXX30t6+vrw2fPnq3btGmTKoR4Q0q5dt3adTwy+xFG3DmCjPQM9n67F5vNRmhoKHN+OoeeYT1b2S4vL+fP6/8sKysqBcCli5c4dfLUPwQkc1LTUrNb6nTqFJgUO6lECvnvrgZXyz3eOJaUnM4/zdGso5zIPYHD4SAoKKjNfeLeb/eSl5cngE/Wrlv7KUB6RvqRuNi4Oinl9OM5x0XOsRyysrJoaGhwAFdqa2u7ZWdly1GjRomW7xe+/OJLigqLBLDWpbru1gldJoIIgSiVQv4iJS3li2t96FwmqNMq0JAul6vVmqyqrGLTxk2cOXOmlXxAYACPzH6kFVl64fwFAIQQFS1lU9JSVlmWWI6h8GZpaWmkEOKk0MSc/KL8Y32j+qbWO+tf/P7775k+Y3qzTlMKruiV365JW1MObLr60y5uKRFKTEwM10ndKinkTCAkLj6umcPTNI03//gm58+fJyIigvETxuNt8Cb3eC7ZR7Px9vZm0QuLmqgwSktL+f3rv0dKeVmT2kfGBuPvrK9bWyb8IikpKSg5ObkCkABLly4dKqTI8ff3Z8SdI7DV2KipqaGwsFBKKcsNRkPPloGuI9zSFoiPi/8MeMjb4G0cN36caGJtAY4cPsKBAweIiorimf94hoiICHr06NHM0uTn52O32xkWMwxojBmKonCm4IwZmODWue+ZPmP62iaaHCA9Pd3RcvyMjIzLcXFx0c5654ji4mJKSkqorKxESlmKxs9XrFxRcKO+3PQxuHDhQgOS6X5+fvI3v/2NePChB1tlXoWFhQBMmTalzX6fPGUyOp2OwjOFrdqnTJ3CS799qenF+QhXjeu6rzBTUlPmSSFjkcxHMksKOaygsCAiZXVKG+KzI9x0DDAajd4A3t7ewlPyYauxAeDbzbdNn06nw2g0YrfbUVW11QSZTCaMpsZ7SJfedSPPZmVqaup+YP/N+tASN70CTCZTLVBtt9nlidwTOOudrfojejcyOWfPnm2jW1FRgd1up1dEr1bOq6pKcXExNTU1EsDUYLqhKvJ24KZjwJ49e2TsxFi9qqpTs7OzycrKYuSokc3EqJ+fH4e+P0RxUTHRfaObz3ybzcbHGz6murqaGTNmNNNaLpeLt/70Frt37cZZ7xRIvlzx2op3b6OPHeKWgmDG/ox9cXfFZSMwOp3OgVeuXGH4iOFA43WZyWzi2A/HyDyUyfGc4xw5coTt27ZTUVFBzPAYZs6a2Rw0d+7YybEfjoHkkFDE606XM/HAgQMdP1K4jegUH3D1cVVpSEiIeHHJi636Tuef5qsvv6K0tLHy9PPzI2FyAndNvKtVKvuX9/7CiRMnEDoxsCV/+M9CpxIhqcoXAXEt+wLQr38/nn/heerq6mhoaMDf399jDt/0IFuq8sdAame+51bQ2XJ4JsDUaVPbFTCZTAQEBLRbwMTGN1d8P+/kt9wSOjUBEnkU4IvPv8DtdnPu3Dl279rNge8O4HK52spLSVZWFgcPHqTeUY+maezcsbPJ1j99+cPtiQFHgfDAoMDm1yEAvfv0Zt78ef+gsyur2PDRBs6dOweAt8FbhoeHi6LCIoQQl3AzPXlNcm5nvudW0KlqMD09vS5hQsKnUpHx9Y76cAQXpJCJAiFqqmsG+Pj4EBXV+O90n332Gfn5+UjkNwLxN1VVx1VVVSkCUSAVOSVlVcr/vhXQEosXLw4tLi6+smnTJjVpcdJdUpH7e/bsyZixYwDYvm27dLlcDT4mHz+r1dpgXWj1q/Wp7V5UVFT0r/yvsS6hxa1Wq1LvqN+KbAySLbAqJS0lsSvGvFV02b2A1Wr1djgcjygo4VJKo5AiK3lV8tdcLWn/p+C/AYHOTDX+5RS3AAAAAElFTkSuQmCC;strokeColor=#4277BB;strokeWidth=2;labelBackgroundColor=none;rounded=0;sketch=0;fontFamily=Helvetica;gradientColor=none;labelPosition=center;verticalLabelPosition=top;verticalAlign=bottom;" parent="HtNJtt0uTnjBc0L4M6rb-2" vertex="1">
                        <mxGeometry x="-608" y="190" width="50" height="50" as="geometry"/>
                    </mxCell>
                </UserObject>
                <mxCell id="CBfh4RTW94J9ulOomnI7-2" value="numbering" parent="S_Ya5THD_kvHtzZO9yah-0"/>
                <mxCell id="CBfh4RTW94J9ulOomnI7-6" value="&lt;h3&gt;3&lt;/h3&gt;" style="ellipse;whiteSpace=wrap;html=1;aspect=fixed;strokeWidth=2;fontFamily=Helvetica;spacingBottom=4;spacingRight=2;labelBackgroundColor=none;" parent="CBfh4RTW94J9ulOomnI7-2" vertex="1">
                    <mxGeometry x="-550" y="-200" width="26" height="26" as="geometry"/>
                </mxCell>
                <mxCell id="CBfh4RTW94J9ulOomnI7-1" value="&lt;h3&gt;1&lt;/h3&gt;" style="ellipse;whiteSpace=wrap;html=1;aspect=fixed;strokeWidth=2;fontFamily=Helvetica;spacingBottom=4;spacingRight=2;labelBackgroundColor=none;" parent="CBfh4RTW94J9ulOomnI7-2" vertex="1">
                    <mxGeometry x="-550" y="90" width="26" height="26" as="geometry"/>
                </mxCell>
                <mxCell id="CBfh4RTW94J9ulOomnI7-5" value="&lt;h3&gt;2&lt;/h3&gt;" style="ellipse;whiteSpace=wrap;html=1;aspect=fixed;strokeWidth=2;fontFamily=Helvetica;spacingBottom=4;spacingRight=2;labelBackgroundColor=none;" parent="CBfh4RTW94J9ulOomnI7-2" vertex="1">
                    <mxGeometry x="-40" y="90" width="26" height="26" as="geometry"/>
                </mxCell>
                <mxCell id="CBfh4RTW94J9ulOomnI7-7" value="&lt;h3&gt;4&lt;/h3&gt;" style="ellipse;whiteSpace=wrap;html=1;aspect=fixed;strokeWidth=2;fontFamily=Helvetica;spacingBottom=4;spacingRight=2;labelBackgroundColor=none;" parent="CBfh4RTW94J9ulOomnI7-2" vertex="1">
                    <mxGeometry x="420" y="-160" width="26" height="26" as="geometry"/>
                </mxCell>
            </root>
        </mxGraphModel>
    </diagram>
</mxfile>